<svg fill="none" xmlns="http://www.w3.org/2000/svg" viewBox="0 0 276 276">
  <path d="M9.5 95H0v9.5h9.5V95ZM9.5 104.5H0v9.5h9.5v-9.5ZM9.5 152H0v9.5h9.5V152ZM9.5 171H0v9.5h9.5V171ZM9.5 180.5H0v9.5h9.5v-9.5ZM19 104.5H9.5v9.5H19v-9.5ZM19 114H9.5v9.5H19V114ZM19 171H9.5v9.5H19V171ZM19 180.5H9.5v9.5H19v-9.5ZM28.5 85.5H19V95h9.5v-9.5ZM28.5 95H19v9.5h9.5V95ZM28.5 104.5H19v9.5h9.5v-9.5ZM28.5 123.5H19v9.5h9.5v-9.5ZM28.5 133H19v9.5h9.5V133ZM28.5 152H19v9.5h9.5V152ZM28.5 161.5H19v9.5h9.5v-9.5ZM38 76h-9.5v9.5H38V76ZM38 85.5h-9.5V95H38v-9.5ZM38 95h-9.5v9.5H38V95ZM38 104.5h-9.5v9.5H38v-9.5ZM38 152h-9.5v9.5H38V152ZM38 161.5h-9.5v9.5H38v-9.5ZM38 171h-9.5v9.5H38V171ZM38 180.5h-9.5v9.5H38v-9.5ZM47.5 104.5H38v9.5h9.5v-9.5ZM47.5 123.5H38v9.5h9.5v-9.5ZM47.5 142.5H38v9.5h9.5v-9.5ZM47.5 161.5H38v9.5h9.5v-9.5ZM47.5 190H38v9.5h9.5V190ZM57 76h-9.5v9.5H57V76ZM57 95h-9.5v9.5H57V95ZM57 123.5h-9.5v9.5H57v-9.5ZM57 133h-9.5v9.5H57V133ZM57 152h-9.5v9.5H57V152ZM57 190h-9.5v9.5H57V190ZM66.5 76H57v9.5h9.5V76ZM66.5 95H57v9.5h9.5V95ZM66.5 114H57v9.5h9.5V114ZM66.5 133H57v9.5h9.5V133ZM66.5 152H57v9.5h9.5V152ZM66.5 171H57v9.5h9.5V171ZM66.5 190H57v9.5h9.5V190ZM76 76h-9.5v9.5H76V76ZM76 85.5h-9.5V95H76v-9.5ZM76 104.5h-9.5v9.5H76v-9.5ZM76 114h-9.5v9.5H76V114ZM76 123.5h-9.5v9.5H76v-9.5ZM76 133h-9.5v9.5H76V133ZM76 142.5h-9.5v9.5H76v-9.5ZM76 152h-9.5v9.5H76V152ZM76 171h-9.5v9.5H76V171ZM76 190h-9.5v9.5H76V190ZM85.5 9.5H76V19h9.5V9.5ZM85.5 19H76v9.5h9.5V19ZM85.5 57H76v9.5h9.5V57ZM85.5 85.5H76V95h9.5v-9.5ZM85.5 104.5H76v9.5h9.5v-9.5ZM85.5 114H76v9.5h9.5V114ZM85.5 123.5H76v9.5h9.5v-9.5ZM85.5 133H76v9.5h9.5V133ZM85.5 142.5H76v9.5h9.5v-9.5ZM85.5 161.5H76v9.5h9.5v-9.5ZM85.5 171H76v9.5h9.5V171ZM85.5 180.5H76v9.5h9.5v-9.5ZM85.5 190H76v9.5h9.5V190ZM85.5 209H76v9.5h9.5V209ZM85.5 218.5H76v9.5h9.5v-9.5ZM85.5 237.5H76v9.5h9.5v-9.5ZM95 0h-9.5v9.5H95V0ZM95 38h-9.5v9.5H95V38ZM95 47.5h-9.5V57H95v-9.5ZM95 76h-9.5v9.5H95V76ZM95 85.5h-9.5V95H95v-9.5ZM95 95h-9.5v9.5H95V95ZM95 104.5h-9.5v9.5H95v-9.5ZM95 114h-9.5v9.5H95V114ZM95 142.5h-9.5v9.5H95v-9.5ZM95 152h-9.5v9.5H95V152ZM95 171h-9.5v9.5H95V171ZM95 199.5h-9.5v9.5H95v-9.5ZM95 218.5h-9.5v9.5H95v-9.5ZM95 237.5h-9.5v9.5H95v-9.5ZM95 247h-9.5v9.5H95V247ZM95 256.5h-9.5v9.5H95v-9.5ZM95 266h-9.5v9.5H95V266ZM104.5 19H95v9.5h9.5V19ZM104.5 28.5H95V38h9.5v-9.5ZM104.5 38H95v9.5h9.5V38ZM104.5 57H95v9.5h9.5V57ZM104.5 76H95v9.5h9.5V76ZM104.5 85.5H95V95h9.5v-9.5ZM104.5 161.5H95v9.5h9.5v-9.5ZM104.5 171H95v9.5h9.5V171ZM104.5 180.5H95v9.5h9.5v-9.5ZM104.5 199.5H95v9.5h9.5v-9.5ZM104.5 218.5H95v9.5h9.5v-9.5ZM104.5 266H95v9.5h9.5V266ZM114 9.5h-9.5V19h9.5V9.5ZM114 76h-9.5v9.5h9.5V76ZM114 95h-9.5v9.5h9.5V95ZM114 104.5h-9.5v9.5h9.5v-9.5ZM114 114h-9.5v9.5h9.5V114ZM114 123.5h-9.5v9.5h9.5v-9.5ZM114 142.5h-9.5v9.5h9.5v-9.5ZM114 152h-9.5v9.5h9.5V152ZM114 171h-9.5v9.5h9.5V171ZM114 209h-9.5v9.5h9.5V209ZM114 237.5h-9.5v9.5h9.5v-9.5ZM123.5 19H114v9.5h9.5V19ZM123.5 28.5H114V38h9.5v-9.5ZM123.5 47.5H114V57h9.5v-9.5ZM123.5 57H114v9.5h9.5V57ZM123.5 76H114v9.5h9.5V76ZM123.5 85.5H114V95h9.5v-9.5ZM123.5 95H114v9.5h9.5V95ZM123.5 123.5H114v9.5h9.5v-9.5ZM123.5 133H114v9.5h9.5V133ZM123.5 190H114v9.5h9.5V190ZM123.5 199.5H114v9.5h9.5v-9.5ZM123.5 209H114v9.5h9.5V209ZM123.5 247H114v9.5h9.5V247ZM123.5 256.5H114v9.5h9.5v-9.5ZM133 19h-9.5v9.5h9.5V19ZM133 38h-9.5v9.5h9.5V38ZM133 47.5h-9.5V57h9.5v-9.5ZM133 114h-9.5v9.5h9.5V114ZM133 123.5h-9.5v9.5h9.5v-9.5ZM133 133h-9.5v9.5h9.5V133ZM133 152h-9.5v9.5h9.5V152ZM133 161.5h-9.5v9.5h9.5v-9.5ZM133 171h-9.5v9.5h9.5V171ZM133 180.5h-9.5v9.5h9.5v-9.5ZM133 190h-9.5v9.5h9.5V190ZM133 209h-9.5v9.5h9.5V209ZM133 237.5h-9.5v9.5h9.5v-9.5ZM133 266h-9.5v9.5h9.5V266ZM142.5 9.5H133V19h9.5V9.5ZM142.5 47.5H133V57h9.5v-9.5ZM142.5 57H133v9.5h9.5V57ZM142.5 85.5H133V95h9.5v-9.5ZM142.5 114H133v9.5h9.5V114ZM142.5 142.5H133v9.5h9.5v-9.5ZM142.5 152H133v9.5h9.5V152ZM142.5 180.5H133v9.5h9.5v-9.5ZM142.5 199.5H133v9.5h9.5v-9.5ZM142.5 209H133v9.5h9.5V209ZM142.5 237.5H133v9.5h9.5v-9.5ZM142.5 247H133v9.5h9.5V247ZM142.5 256.5H133v9.5h9.5v-9.5ZM142.5 266H133v9.5h9.5V266ZM152 9.5h-9.5V19h9.5V9.5ZM152 28.5h-9.5V38h9.5v-9.5ZM152 38h-9.5v9.5h9.5V38ZM152 66.5h-9.5V76h9.5v-9.5ZM152 76h-9.5v9.5h9.5V76ZM152 95h-9.5v9.5h9.5V95ZM152 142.5h-9.5v9.5h9.5v-9.5ZM152 161.5h-9.5v9.5h9.5v-9.5ZM152 190h-9.5v9.5h9.5V190ZM152 237.5h-9.5v9.5h9.5v-9.5ZM152 256.5h-9.5v9.5h9.5v-9.5ZM161.5 0H152v9.5h9.5V0ZM161.5 19H152v9.5h9.5V19ZM161.5 57H152v9.5h9.5V57ZM161.5 85.5H152V95h9.5v-9.5ZM161.5 114H152v9.5h9.5V114ZM161.5 133H152v9.5h9.5V133ZM161.5 161.5H152v9.5h9.5v-9.5ZM161.5 190H152v9.5h9.5V190ZM161.5 199.5H152v9.5h9.5v-9.5ZM161.5 209H152v9.5h9.5V209ZM161.5 228H152v9.5h9.5V228ZM171 9.5h-9.5V19h9.5V9.5ZM171 28.5h-9.5V38h9.5v-9.5ZM171 38h-9.5v9.5h9.5V38ZM171 47.5h-9.5V57h9.5v-9.5ZM171 95h-9.5v9.5h9.5V95ZM171 114h-9.5v9.5h9.5V114ZM171 133h-9.5v9.5h9.5V133ZM171 180.5h-9.5v9.5h9.5v-9.5ZM171 190h-9.5v9.5h9.5V190ZM171 199.5h-9.5v9.5h9.5v-9.5ZM171 209h-9.5v9.5h9.5V209ZM171 218.5h-9.5v9.5h9.5v-9.5ZM171 237.5h-9.5v9.5h9.5v-9.5ZM171 266h-9.5v9.5h9.5V266ZM180.5 0H171v9.5h9.5V0ZM180.5 9.5H171V19h9.5V9.5ZM180.5 28.5H171V38h9.5v-9.5ZM180.5 38H171v9.5h9.5V38ZM180.5 47.5H171V57h9.5v-9.5ZM180.5 57H171v9.5h9.5V57ZM180.5 76H171v9.5h9.5V76ZM180.5 133H171v9.5h9.5V133ZM180.5 142.5H171v9.5h9.5v-9.5ZM180.5 171H171v9.5h9.5V171ZM180.5 180.5H171v9.5h9.5v-9.5ZM180.5 218.5H171v9.5h9.5v-9.5ZM180.5 228H171v9.5h9.5V228ZM180.5 237.5H171v9.5h9.5v-9.5ZM180.5 266H171v9.5h9.5V266ZM190 28.5h-9.5V38h9.5v-9.5ZM190 47.5h-9.5V57h9.5v-9.5ZM190 76h-9.5v9.5h9.5V76ZM190 85.5h-9.5V95h9.5v-9.5ZM190 95h-9.5v9.5h9.5V95ZM190 104.5h-9.5v9.5h9.5v-9.5ZM190 123.5h-9.5v9.5h9.5v-9.5ZM190 180.5h-9.5v9.5h9.5v-9.5ZM190 190h-9.5v9.5h9.5V190ZM190 199.5h-9.5v9.5h9.5v-9.5ZM190 209h-9.5v9.5h9.5V209ZM190 218.5h-9.5v9.5h9.5v-9.5ZM190 266h-9.5v9.5h9.5V266ZM199.5 0H190v9.5h9.5V0ZM199.5 9.5H190V19h9.5V9.5ZM199.5 28.5H190V38h9.5v-9.5ZM199.5 57H190v9.5h9.5V57ZM199.5 85.5H190V95h9.5v-9.5ZM199.5 114H190v9.5h9.5V114ZM199.5 123.5H190v9.5h9.5v-9.5ZM199.5 142.5H190v9.5h9.5v-9.5ZM199.5 152H190v9.5h9.5V152ZM199.5 171H190v9.5h9.5V171ZM199.5 190H190v9.5h9.5V190ZM199.5 199.5H190v9.5h9.5v-9.5ZM199.5 209H190v9.5h9.5V209ZM199.5 218.5H190v9.5h9.5v-9.5ZM199.5 228H190v9.5h9.5V228ZM199.5 256.5H190v9.5h9.5v-9.5ZM209 76h-9.5v9.5h9.5V76ZM209 85.5h-9.5V95h9.5v-9.5ZM209 95h-9.5v9.5h9.5V95ZM209 123.5h-9.5v9.5h9.5v-9.5ZM209 142.5h-9.5v9.5h9.5v-9.5ZM209 152h-9.5v9.5h9.5V152ZM209 190h-9.5v9.5h9.5V190ZM209 228h-9.5v9.5h9.5V228ZM209 237.5h-9.5v9.5h9.5v-9.5ZM209 266h-9.5v9.5h9.5V266ZM218.5 85.5H209V95h9.5v-9.5ZM218.5 104.5H209v9.5h9.5v-9.5ZM218.5 133H209v9.5h9.5V133ZM218.5 142.5H209v9.5h9.5v-9.5ZM218.5 161.5H209v9.5h9.5v-9.5ZM218.5 171H209v9.5h9.5V171ZM218.5 190H209v9.5h9.5V190ZM218.5 209H209v9.5h9.5V209ZM218.5 228H209v9.5h9.5V228ZM218.5 237.5H209v9.5h9.5v-9.5ZM218.5 247H209v9.5h9.5V247ZM218.5 266H209v9.5h9.5V266ZM228 95h-9.5v9.5h9.5V95ZM228 114h-9.5v9.5h9.5V114ZM228 123.5h-9.5v9.5h9.5v-9.5ZM228 133h-9.5v9.5h9.5V133ZM228 142.5h-9.5v9.5h9.5v-9.5ZM228 171h-9.5v9.5h9.5V171ZM228 180.5h-9.5v9.5h9.5v-9.5ZM228 190h-9.5v9.5h9.5V190ZM228 228h-9.5v9.5h9.5V228ZM228 237.5h-9.5v9.5h9.5v-9.5ZM228 256.5h-9.5v9.5h9.5v-9.5ZM228 266h-9.5v9.5h9.5V266ZM237.5 123.5H228v9.5h9.5v-9.5ZM237.5 142.5H228v9.5h9.5v-9.5ZM237.5 152H228v9.5h9.5V152ZM237.5 161.5H228v9.5h9.5v-9.5ZM237.5 171H228v9.5h9.5V171ZM237.5 180.5H228v9.5h9.5v-9.5ZM237.5 190H228v9.5h9.5V190ZM237.5 199.5H228v9.5h9.5v-9.5ZM237.5 209H228v9.5h9.5V209ZM237.5 218.5H228v9.5h9.5v-9.5ZM237.5 228H228v9.5h9.5V228ZM247 95h-9.5v9.5h9.5V95ZM247 104.5h-9.5v9.5h9.5v-9.5ZM247 152h-9.5v9.5h9.5V152ZM247 161.5h-9.5v9.5h9.5v-9.5ZM247 171h-9.5v9.5h9.5V171ZM247 180.5h-9.5v9.5h9.5v-9.5ZM247 190h-9.5v9.5h9.5V190ZM247 218.5h-9.5v9.5h9.5v-9.5ZM247 228h-9.5v9.5h9.5V228ZM247 256.5h-9.5v9.5h9.5v-9.5ZM256.5 76H247v9.5h9.5V76ZM256.5 95H247v9.5h9.5V95ZM256.5 104.5H247v9.5h9.5v-9.5ZM256.5 114H247v9.5h9.5V114ZM256.5 152H247v9.5h9.5V152ZM256.5 199.5H247v9.5h9.5v-9.5ZM256.5 228H247v9.5h9.5V228ZM256.5 237.5H247v9.5h9.5v-9.5ZM256.5 247H247v9.5h9.5V247ZM256.5 256.5H247v9.5h9.5v-9.5ZM256.5 266H247v9.5h9.5V266ZM266 76h-9.5v9.5h9.5V76ZM266 95h-9.5v9.5h9.5V95ZM266 114h-9.5v9.5h9.5V114ZM266 133h-9.5v9.5h9.5V133ZM266 142.5h-9.5v9.5h9.5v-9.5ZM266 152h-9.5v9.5h9.5V152ZM266 199.5h-9.5v9.5h9.5v-9.5ZM266 237.5h-9.5v9.5h9.5v-9.5ZM275.5 104.5H266v9.5h9.5v-9.5ZM275.5 123.5H266v9.5h9.5v-9.5ZM275.5 152H266v9.5h9.5V152ZM275.5 190H266v9.5h9.5V190ZM275.5 218.5H266v9.5h9.5v-9.5ZM275.5 228H266v9.5h9.5V228ZM275.5 237.5H266v9.5h9.5v-9.5ZM275.5 247H266v9.5h9.5V247ZM275.5 266H266v9.5h9.5V266ZM9.5 0H0v9.5h9.5V0ZM9.5 9.5H0V19h9.5V9.5ZM9.5 19H0v9.5h9.5V19ZM9.5 28.5H0V38h9.5v-9.5ZM9.5 38H0v9.5h9.5V38ZM9.5 47.5H0V57h9.5v-9.5ZM9.5 57H0v9.5h9.5V57ZM19 0H9.5v9.5H19V0ZM19 57H9.5v9.5H19V57ZM28.5 0H19v9.5h9.5V0ZM28.5 57H19v9.5h9.5V57ZM38 0h-9.5v9.5H38V0ZM38 57h-9.5v9.5H38V57ZM47.5 0H38v9.5h9.5V0ZM47.5 57H38v9.5h9.5V57ZM57 0h-9.5v9.5H57V0ZM57 57h-9.5v9.5H57V57ZM66.5 0H57v9.5h9.5V0ZM66.5 9.5H57V19h9.5V9.5ZM66.5 19H57v9.5h9.5V19ZM66.5 28.5H57V38h9.5v-9.5ZM66.5 38H57v9.5h9.5V38ZM66.5 47.5H57V57h9.5v-9.5ZM66.5 57H57v9.5h9.5V57ZM28.5 19H19v9.5h9.5V19ZM28.5 28.5H19V38h9.5v-9.5ZM28.5 38H19v9.5h9.5V38ZM38 19h-9.5v9.5H38V19ZM38 28.5h-9.5V38H38v-9.5ZM38 38h-9.5v9.5H38V38ZM47.5 19H38v9.5h9.5V19ZM47.5 28.5H38V38h9.5v-9.5ZM47.5 38H38v9.5h9.5V38ZM218.5 0H209v9.5h9.5V0ZM218.5 9.5H209V19h9.5V9.5ZM218.5 19H209v9.5h9.5V19ZM218.5 28.5H209V38h9.5v-9.5ZM218.5 38H209v9.5h9.5V38ZM218.5 47.5H209V57h9.5v-9.5ZM218.5 57H209v9.5h9.5V57ZM228 0h-9.5v9.5h9.5V0ZM228 57h-9.5v9.5h9.5V57ZM237.5 0H228v9.5h9.5V0ZM237.5 57H228v9.5h9.5V57ZM247 0h-9.5v9.5h9.5V0ZM247 57h-9.5v9.5h9.5V57ZM256.5 0H247v9.5h9.5V0ZM256.5 57H247v9.5h9.5V57ZM266 0h-9.5v9.5h9.5V0ZM266 57h-9.5v9.5h9.5V57ZM275.5 0H266v9.5h9.5V0ZM275.5 9.5H266V19h9.5V9.5ZM275.5 19H266v9.5h9.5V19ZM275.5 28.5H266V38h9.5v-9.5ZM275.5 38H266v9.5h9.5V38ZM275.5 47.5H266V57h9.5v-9.5ZM275.5 57H266v9.5h9.5V57ZM237.5 19H228v9.5h9.5V19ZM237.5 28.5H228V38h9.5v-9.5ZM237.5 38H228v9.5h9.5V38ZM247 19h-9.5v9.5h9.5V19ZM247 28.5h-9.5V38h9.5v-9.5ZM247 38h-9.5v9.5h9.5V38ZM256.5 19H247v9.5h9.5V19ZM256.5 28.5H247V38h9.5v-9.5ZM256.5 38H247v9.5h9.5V38ZM9.5 209H0v9.5h9.5V209ZM9.5 218.5H0v9.5h9.5v-9.5ZM9.5 228H0v9.5h9.5V228ZM9.5 237.5H0v9.5h9.5v-9.5ZM9.5 247H0v9.5h9.5V247ZM9.5 256.5H0v9.5h9.5v-9.5ZM9.5 266H0v9.5h9.5V266ZM19 209H9.5v9.5H19V209ZM19 266H9.5v9.5H19V266ZM28.5 209H19v9.5h9.5V209ZM28.5 266H19v9.5h9.5V266ZM38 209h-9.5v9.5H38V209ZM38 266h-9.5v9.5H38V266ZM47.5 209H38v9.5h9.5V209ZM47.5 266H38v9.5h9.5V266ZM57 209h-9.5v9.5H57V209ZM57 266h-9.5v9.5H57V266ZM66.5 209H57v9.5h9.5V209ZM66.5 218.5H57v9.5h9.5v-9.5ZM66.5 228H57v9.5h9.5V228ZM66.5 237.5H57v9.5h9.5v-9.5ZM66.5 247H57v9.5h9.5V247ZM66.5 256.5H57v9.5h9.5v-9.5ZM66.5 266H57v9.5h9.5V266ZM28.5 228H19v9.5h9.5V228ZM28.5 237.5H19v9.5h9.5v-9.5ZM28.5 247H19v9.5h9.5V247ZM38 228h-9.5v9.5H38V228ZM38 237.5h-9.5v9.5H38v-9.5ZM38 247h-9.5v9.5H38V247ZM47.5 228H38v9.5h9.5V228ZM47.5 237.5H38v9.5h9.5v-9.5ZM47.5 247H38v9.5h9.5V247Z" fill="black"/>
</svg>
