<svg fill="none" xmlns="http://www.w3.org/2000/svg" viewBox="0 0 11 11">
  <path fill-rule="evenodd" clip-rule="evenodd" d="M5.5 0C8.53757 0 11 2.46243 11 5.5S8.53757 11 5.5 11 0 8.53757 0 5.5 2.46243 0 5.5 0Zm0 .91667C2.96869.91667.91667 2.96869.91667 5.5S2.96869 10.0833 5.5 10.0833 10.0833 8.03131 10.0833 5.5C10.0833 2.96869 8.03131.91667 5.5.91667ZM5.04167 8.25c0 .25313.2052.45833.45833.45833s.45833-.2052.45833-.45833V5.5c0-.25313-.2052-.45833-.45833-.45833s-.45833.2052-.45833.45833v2.75ZM5.5 4.35417c-.37984 0-.6875-.30766-.6875-.6875 0-.37985.30766-.6875.6875-.6875s.6875.30765.6875.6875c0 .37984-.30766.6875-.6875.6875Z" fill="black"/>
</svg>
