<svg fill="none" xmlns="http://www.w3.org/2000/svg" viewBox="0 0 11 11">
  <path fill-rule="evenodd" clip-rule="evenodd" d="M11 7.13281c0 .23732-.1924.42969-.4297.42969-.2373 0-.4297-.19237-.4297-.42969V2.57812c0-.47385-.38549-.85937-.85935-.85937h-.55859v.42969c0 .23731-.19238.42968-.42969.42968-.23732 0-.42969-.19237-.42969-.42968v-.42969H5.9082v.42969c0 .23731-.19237.42968-.42968.42968-.23732 0-.42969-.19237-.42969-.42968v-.42969h-1.9336v.42969c0 .23731-.19237.42968-.42968.42968-.23732 0-.42969-.19237-.42969-.42968v-.42969h-.53711c-.47386 0-.85938.38552-.85938.85937v6.70313c0 .47386.38552.85935.85938.85935h7.5625c.47386 0 .85935-.38549.85935-.85935 0-.23732.1924-.42969.4297-.42969.2373 0 .4297.19237.4297.42969C11 10.229 10.229 11 9.28125 11h-7.5625C.77103 11 0 10.229 0 9.28125V2.57812C0 1.63041.77103.85937 1.71875.85937h.53711V.4297C2.25586.19237 2.44823 0 2.68555 0c.23731 0 .42968.19237.42968.42969v.42968h1.9336V.4297C5.04883.19237 5.2412 0 5.47852 0c.23731 0 .42968.19237.42968.42969v.42968h1.95508V.4297C7.86328.19237 8.05565 0 8.29297 0c.23731 0 .42969.19237.42969.42969v.42968h.55859C10.229.85938 11 1.63041 11 2.57813v4.55469Zm-2.70703-2.1914c.23731 0 .42969-.19238.42969-.42969 0-.23731-.19238-.42969-.42969-.42969-.23731 0-.42969.19238-.42969.42969 0 .23731.19238.42969.42969.42969Zm-2.29883 2.8789c0 .47386.38552.85938.85938.85938h1.00976c.47386 0 .85938-.38552.85938-.85938V6.81055c0-.47386-.38552-.85938-.85938-.85938H6.85352c-.47386 0-.85938.38552-.85938.85938v1.00976Zm.85938-1.00976h1.00976l.00054 1.00974-1.0103.00002V6.81055Zm0-2.29883c0 .23731-.19238.42969-.42969.42969-.23731 0-.42969-.19238-.42969-.42969 0-.23731.19238-.42969.42969-.42969.23731 0 .42969.19238.42969.42969ZM3.11523 8.25c0 .23731-.19237.42969-.42968.42969s-.42969-.19238-.42969-.42969c0-.23731.19238-.42969.42969-.42969.23731 0 .42968.19238.42968.42969Zm-.42968-3.30859c.23731 0 .42968-.19238.42968-.42969 0-.23731-.19237-.42969-.42968-.42969s-.42969.19238-.42969.42969c0 .23731.19238.42969.42969.42969Zm.42968 1.43945c0 .23731-.19237.42969-.42968.42969s-.42969-.19238-.42969-.42969c0-.23731.19238-.42969.42969-.42969.23731 0 .42968.19238.42968.42969Zm1.43946.42969c.23731 0 .42969-.19238.42969-.42969 0-.23731-.19238-.42969-.42969-.42969-.23731 0-.42969.19238-.42969.42969 0 .23731.19238.42969.42969.42969Zm.42969-2.29883c0 .23731-.19238.42969-.42969.42969-.23731 0-.42969-.19238-.42969-.42969 0-.23731.19238-.42969.42969-.42969.23731 0 .42969.19238.42969.42969Zm-.42969 4.16797c.23731 0 .42969-.19238.42969-.42969 0-.23731-.19238-.42969-.42969-.42969-.23731 0-.42969.19238-.42969.42969 0 .23731.19238.42969.42969.42969Z" fill="black"/>
</svg>
