<svg fill="none" xmlns="http://www.w3.org/2000/svg" viewBox="0 0 11 11">
  <path d="M8.28948 2.496H2.68422c-.23739 0-.42983.19213-.42983.42914 0 .23701.19244.42914.42983.42914h5.60526c.23739 0 .42983-.19213.42983-.42914 0-.23701-.19244-.42914-.42983-.42914ZM8.28948 4.36145H2.68422c-.23739 0-.42983.19213-.42983.42914 0 .23701.19244.42914.42983.42914h5.60526c.23739 0 .42983-.19213.42983-.42914 0-.23701-.19244-.42914-.42983-.42914ZM4.78071 6.1481H2.68422c-.23739 0-.42983.19213-.42983.42914 0 .23701.19244.42914.42983.42914h2.09649c.23739 0 .42983-.19213.42983-.42914 0-.23701-.19244-.42914-.42983-.42914Z" fill="black" />
  <path d="M9.28076 0H1.71935C1.26156-.00014.82185.17837.49407.49745c-.32778.31907-.51766.75342-.5291 1.21034v7.56689c0 .46455.18483.91012.51384 1.23852.32902.3285.77525.5131 1.24054.5131H8.0176l2.9649-2.93395V1.75159a1.75023 1.75023 0 0 0-.4951-1.22036C10.1697.20421 9.73687.01367 9.28076 0ZM8.22812 9.8352V8.59156a.34133.34133 0 0 1 .1002-.24153.34238.34238 0 0 1 .24191-.10004h1.25439L8.22812 9.8352Zm.34211-2.26833a1.0359 1.0359 0 0 0-.72883.29958 1.03263 1.03263 0 0 0-.30626.72511v1.55894H1.71935a.87793.87793 0 0 1-.62027-.25655.8751.8751 0 0 1-.25692-.61927V1.70779a.87506.87506 0 0 1 .25692-.61927.87793.87793 0 0 1 .62027-.25653h7.56141a.87793.87793 0 0 1 .62027.25653.87515.87515 0 0 1 .25687.61927v5.85908H8.57023Z" fill="black" />
</svg>
