<svg fill="none" xmlns="http://www.w3.org/2000/svg" viewBox="0 0 16 16">
  <path fill-rule="evenodd" clip-rule="evenodd" d="m4.93236 8.34956.50671.48932 1.99476 2.15952v-.0001L5.43916 8.83888l-.50671-.48932c-.16174-.15619-.36011-.23737-.55739-.23728.19725-.00006.39559.08111.5573.23728ZM8.1682 13.1263c.3315-.0006.6606-.1561.96118-.4673l3.23302-3.34791c.3029-.31368.3065-.78818-.0193-1.10274-.1342-.12959-.2966-.20115-.4628-.21559.1661.01445.3286.08602.4627.21559.3258.31456.3222.78906.0193 1.10274L9.1293 12.659c-.30056.3112-.62963.4666-.9611.4673Zm.68861-2.1529.02109-3.20866-.04607-3.65833c.00231-.20761-.08983-.38985-.2346-.52965-.17485-.16885-.38644-.25762-.59513-.25712.20866-.00047.42022.08829.59504.25712.14478.1398.23691.32204.23461.52965l.04606 3.65833-.02109 3.20876.00009-.0001Zm-1.19846.5628-.16951-3.74999-.0637-3.64932c-.00278-.15902.05553-.31119.17694-.4369.23819-.24666.58556-.24065.85613.02064.11267.1088.17508.24057.17349.38356l.0461 3.66115-.02466 3.75366 2.25796-2.63845.4851-.50237c.2351-.24337.5768-.24918.8079-.02597.2443.23587.2425.58368.0143.81994L8.98543 12.52c-.26989.2795-.5468.4029-.80834.4063-.26191.0034-.54376-.1131-.82394-.3837L4.00528 9.30959c-.24542-.237-.25911-.57852-.02617-.81974.23095-.23916.56676-.23549.81432.00358l.5026.48535 2.36232 2.55742Z" fill="black"/>
</svg>
