<svg xmlns="http://www.w3.org/2000/svg" fill="none" viewBox="0 0 12 12">
  <path fill="#0E0F13" fill-rule="evenodd" d="M3.5 0a.5.5 0 0 1 .5.5V1h4V.5a.5.5 0 0 1 1 0V1h.5A2.5 2.5 0 0 1 12 3.5V9a2.5 2.5 0 0 1-2.5 2.5h-7A2.5 2.5 0 0 1 0 9V3.5A2.5 2.5 0 0 1 2.5 1H3V.5a.5.5 0 0 1 .5-.5ZM8 2v.5a.5.5 0 0 0 1 0V2h.5A1.5 1.5 0 0 1 11 3.5V4H1v-.5A1.5 1.5 0 0 1 2.5 2H3v.5a.5.5 0 0 0 1 0V2h4Zm3 3H1v4a1.5 1.5 0 0 0 1.5 1.5h7A1.5 1.5 0 0 0 11 9V5ZM9 9.5a1 1 0 1 0 0-2 1 1 0 0 0 0 2Z" clip-rule="evenodd"/>
</svg>
