<svg fill="none" xmlns="http://www.w3.org/2000/svg" viewBox="0 0 29 27">
  <path d="M27.24 12.9V2.38998C27.24 1.06998 26.17 0 24.85 0H3.82001c-1.32 0-2.39002 1.06998-2.39002 2.38998V9.56C.63999 9.56 0 10.2 0 10.99v14.34c0 .79.64 1.43 1.42999 1.43H11.94c.79 0 1.43-.64 1.43-1.43h4.01c.45 0 .87-.21 1.14-.56.27-.36.36-.81.24-1.25l-.94-3.45h2.72v5.26c0 .79.64 1.43 1.43 1.43h5.26c.79 0 1.43-.64 1.43-1.43V14.34c.01-.8-.63-1.44-1.42-1.44Zm.48 1.44v.96h-6.21v-.96c0-.26.21-.48.48-.48h5.26c.25 0 .47.21.47.48Zm-6.22 1.91h6.21v7.17H21.5v-7.17ZM2.39001 2.38998c0-.79.64-1.42999 1.43-1.42999H24.85c.79 0 1.43.63999 1.43 1.42999V12.9h-4.3c-.79 0-1.43.64-1.43 1.43v.96h-7.17v-4.3c0-.79-.64-1.43-1.43-1.43H2.39001V2.38998ZM12.42 23.41H.95001V12.9H12.42v10.51ZM1.42999 10.51H11.94c.26 0 .48.21.48.48v.96H.95001v-.96c0-.26.21998-.48.47998-.48ZM11.95 25.8H1.44c-.26 0-.47998-.21-.47998-.48v-.96H12.43v.96c-.01.27-.22.48-.48.48Zm5.81-1.62c-.09.12-.23.19-.38.19h-4.01v-.96h4.37l.1.35c.05.15.02.3-.08.42Zm-.27-1.72h-4.11v-2.39h3.46l.65 2.39Zm-4.11-3.35v-2.87h7.17v2.87h-7.17Zm13.86 6.69h-5.26c-.26 0-.48-.21-.48-.48v-.96h6.21v.96c.01.27-.21.48-.47.48Z" fill="black"/>
</svg>
