<svg fill="none" xmlns="http://www.w3.org/2000/svg" viewBox="0 0 31 31">
  <path d="M21.96 5.92c.34.25.66.52.97.81.12.11.27.16.41.16.16 0 .33-.07.45-.19.23-.25.22-.63001-.03-.86001-.34-.32-.7-.62-1.08-.9-.27-.2-.65-.13999-.85.13001-.19.27-.14.65.13.85ZM5.23004 13.12c-1.77 0-3.21002 1.44-3.21002 3.21s1.44002 3.21 3.21002 3.21S8.44 18.1 8.44 16.33s-1.43996-3.21-3.20996-3.21Zm0 5.2c-1.1 0-1.98999-.89-1.98999-1.99s.88999-1.99 1.98999-1.99 1.98999.89 1.98999 1.99c.01 1.1-.88999 1.99-1.98999 1.99ZM18.37 5.25c0-1.77-1.44-3.20999-3.21-3.20999S11.95 3.48 11.95 5.25c0 1.77 1.44 3.21002 3.21 3.21002S18.37 7.02 18.37 5.25Zm-5.21 0c0-1.1.89-1.98999 1.99-1.98999S17.14 4.15 17.14 5.25s-.89 1.99002-1.99 1.99002c-1.09 0-1.99-.90002-1.99-1.99002Z" fill="black"/>
  <path d="M27.69 16.85c.08-.57.12-1.16.12-1.74 0-2.8-.9-5.46001-2.59-7.68001-.2-.27-.59-.31998-.85-.10998-.27.2-.32.59-.11.85C25.79 10.18 26.6 12.58 26.6 15.11c0 .41-.02.83-.07 1.24-.47-.14-.96-.21-1.48-.21-2.89 0-5.24 2.35-5.24 5.24 0 .84.41 2.03 1.22 3.56-1.78 1.07-3.8 1.63-5.89 1.63-3.03 0-5.84999-1.15-7.99999-3.26.29-.43.59999-.9.91999-1.4 1.6-2.53 2.41-4.41 2.41-5.58 0-2.89-2.34996-5.24-5.23996-5.24-.29 0-.57003.02-.84003.07.99-2.69 2.97998-4.94 5.53998-6.25-.01.11-.00995.22002-.00995.33002 0 1.18.80996 3.05999 2.40996 5.57998 1.16 1.83 2.3 3.32 2.35 3.39.12.15.29.24.48.24s.37-.09.48-.24c.05-.06 1.1901-1.55 2.3501-3.39 1.6-2.52999 2.4099-4.40998 2.4099-5.57998C20.4 2.35002 18.05 0 15.16 0c-2.25 0-4.17 1.42001-4.91 3.42001-3.53 1.48-6.22997 4.51-7.27997 8.17999C1.21003 12.45 0 14.24 0 16.32c0 1.18.81003 3.06 2.41003 5.58 1.16 1.83 2.29998 3.32 2.34998 3.39.12.15.29004.24.48004.24s.36998-.09.47998-.24c.02-.03.29997-.4.71997-.98 1.06 1 2.27004 1.81 3.6 2.4 1.61.71 3.33 1.07 5.1 1.07 2.3 0 4.53-.62 6.49-1.79.18.31.38.63.59.96 1.16 1.83 2.3 3.32 2.35 3.39.12.15.29.24.48.24s.37-.09.48-.24c.05-.06 1.19-1.55 2.35-3.39 1.6-2.53 2.41-4.41 2.41-5.58 0-1.92-1.05-3.6-2.6-4.52ZM15.16 1.23001c2.22 0 4.02 1.79999 4.02 4.01999 0 1.71-2.57 5.59-4.02 7.58-1.45-1.99-4.02-5.87-4.02-7.58 0-2.22 1.8-4.01999 4.02-4.01999ZM5.23004 23.91c-1.45-1.99-4.02002-5.87-4.02002-7.58 0-2.22 1.80002-4.02 4.02002-4.02 2.22 0 4.01996 1.8 4.01996 4.02 0 1.71-2.56996 5.59-4.01996 7.58ZM25.05 28.96c-1.45-1.99-4.02-5.87-4.02-7.58 0-2.22 1.8-4.02 4.02-4.02 2.22 0 4.02 1.8 4.02 4.02 0 1.71-2.57 5.59-4.02 7.58Z" fill="black"/>
  <path d="M25.05 18.16c-1.77 0-3.21 1.44-3.21 3.21s1.44 3.21 3.21 3.21 3.21-1.44 3.21-3.21-1.44-3.21-3.21-3.21Zm0 5.21c-1.1 0-1.99-.89-1.99-1.99s.89-1.99 1.99-1.99 1.99.89 1.99 1.99c0 1.09-.89 1.99-1.99 1.99Z" fill="black"/>
</svg>
