<svg xmlns="http://www.w3.org/2000/svg" fill="none" viewBox="0 0 12 12">
  <path fill="#0E0F13" fill-rule="evenodd" d="M2.5 1A1.5 1.5 0 0 0 1 2.5v7A1.5 1.5 0 0 0 2.5 11h7A1.5 1.5 0 0 0 11 9.5V5H8.5A1.5 1.5 0 0 1 7 3.5V1H2.5Zm5.5.25V3.5a.5.5 0 0 0 .5.5h2.25a1.503 1.503 0 0 0-.19-.232L8.233 1.439A1.5 1.5 0 0 0 8 1.25ZM0 2.5A2.5 2.5 0 0 1 2.5 0h4.672a2.5 2.5 0 0 1 1.767.732l2.329 2.329A2.5 2.5 0 0 1 12 4.828V9.5A2.5 2.5 0 0 1 9.5 12h-7A2.5 2.5 0 0 1 0 9.5v-7Zm2.5.75a.75.75 0 0 1 .75-.75h1.5a.75.75 0 0 1 0 1.5h-1.5a.75.75 0 0 1-.75-.75ZM3 6.5a.5.5 0 0 0 0 1h6a.5.5 0 0 0 0-1H3ZM2.5 9a.5.5 0 0 1 .5-.5h6a.5.5 0 0 1 0 1H3a.5.5 0 0 1-.5-.5Z" clip-rule="evenodd"/>
</svg>
