<svg xmlns="http://www.w3.org/2000/svg" fill="none" viewBox="0 0 32 32">
  <path stroke="#0E0F13" d="M26.5 16c0 5.799-4.701 10.5-10.5 10.5S5.5 21.799 5.5 16 10.201 5.5 16 5.5 26.5 10.201 26.5 16Z"/>
  <path fill="#fff" d="M27 21a4 4 0 0 0-4 4c0 1.527.75 2.854 1.658 3.897A11.473 11.473 0 0 0 27 30.913c.46-.297 1.457-1 2.342-2.016C30.25 27.854 31 26.527 31 25a4 4 0 0 0-4-4Z"/>
  <path fill="#0E0F13" fill-rule="evenodd" d="M23 25a4 4 0 0 1 8 0c0 1.527-.75 2.854-1.658 3.897A11.473 11.473 0 0 1 27 30.913a11.473 11.473 0 0 1-2.342-2.016C23.75 27.854 23 26.527 23 25Zm4-5a5 5 0 0 0-5 5c0 1.864.914 3.416 1.904 4.553a12.471 12.471 0 0 0 2.587 2.221c.313.2.705.2 1.018 0a12.471 12.471 0 0 0 2.587-2.22C31.086 28.415 32 26.863 32 25a5 5 0 0 0-5-5Zm-1.5 5a1.5 1.5 0 1 1 3 0 1.5 1.5 0 0 1-3 0Zm1.5-2.5a2.5 2.5 0 1 0 0 5 2.5 2.5 0 0 0 0-5Z" clip-rule="evenodd"/>
  <path fill="#fff" d="M5 11a4 4 0 0 0-4 4c0 1.527.75 2.854 1.658 3.897A11.473 11.473 0 0 0 5 20.913c.46-.297 1.457-1 2.342-2.016C8.249 17.854 9 16.527 9 15a4 4 0 0 0-4-4Z"/>
  <path fill="#0E0F13" fill-rule="evenodd" d="M1 15a4 4 0 0 1 8 0c0 1.527-.75 2.854-1.658 3.897A11.473 11.473 0 0 1 5 20.913a11.473 11.473 0 0 1-2.342-2.016C1.751 17.854 1 16.527 1 15Zm4-5a5 5 0 0 0-5 5c0 1.864.914 3.416 1.904 4.553a12.472 12.472 0 0 0 2.587 2.221c.313.2.705.2 1.018 0a12.472 12.472 0 0 0 2.587-2.22C9.086 18.415 10 16.863 10 15a5 5 0 0 0-5-5Zm-1.5 5a1.5 1.5 0 1 1 3 0 1.5 1.5 0 0 1-3 0ZM5 12.5a2.5 2.5 0 1 0 0 5 2.5 2.5 0 0 0 0-5Z" clip-rule="evenodd"/>
  <path fill="#fff" d="M16 1a4 4 0 0 0-4 4c0 1.528.75 2.854 1.658 3.897A11.473 11.473 0 0 0 16 10.913c.46-.297 1.457-1 2.342-2.016C19.25 7.854 20 6.527 20 5a4 4 0 0 0-4-4Z"/>
  <path fill="#0E0F13" fill-rule="evenodd" d="M12 5a4 4 0 0 1 8 0c0 1.528-.75 2.854-1.658 3.897A11.473 11.473 0 0 1 16 10.913a11.473 11.473 0 0 1-2.342-2.016C12.751 7.854 12 6.527 12 5Zm4-5a5 5 0 0 0-5 5c0 1.864.914 3.416 1.904 4.553a12.472 12.472 0 0 0 2.587 2.221c.313.2.705.2 1.018 0a12.472 12.472 0 0 0 2.587-2.22C20.086 8.415 21 6.863 21 5a5 5 0 0 0-5-5Zm-1.5 5a1.5 1.5 0 1 1 3 0 1.5 1.5 0 0 1-3 0ZM16 2.5a2.5 2.5 0 1 0 0 5 2.5 2.5 0 0 0 0-5Z" clip-rule="evenodd"/>
</svg>
