<svg width="21" height="20" viewBox="0 0 21 20" fill="none" xmlns="http://www.w3.org/2000/svg">
<path d="M0.730011 19.91H20.64V0H0.730011V19.91ZM16.15 7.98V8L15.47 9.64H6.71002C6.70002 9.76 6.69002 9.89 6.69002 10.02C6.69002 10.23 6.70001 10.44 6.73001 10.64H15.05L14.36 12.31H7.18001C8.06001 14.25 10 15.6 12.27 15.6C14.19 15.6 15.89 14.62 16.9 13.14V15.37C15.66 16.45 14.04 17.1 12.27 17.1C9.17002 17.1 6.53002 15.09 5.57002 12.31H3.02002L3.78001 10.64H5.22002C5.20002 10.43 5.19002 10.23 5.19002 10.02C5.19002 9.89 5.20002 9.77 5.21002 9.64H3.03001L3.85002 7.97H5.50002C6.38002 5.06 9.08001 2.93 12.28 2.93C14.27 2.93 16.07 3.76 17.36 5.09L16.72 6.64C15.7 5.3 14.09 4.43 12.28 4.43C9.92001 4.43 7.90001 5.9 7.09001 7.97H16.15V7.98Z" fill="#1D1D1B"/>
</svg>
