<svg fill="none" xmlns="http://www.w3.org/2000/svg" viewBox="0 0 256 256">
  <g clip-path="url(#a)">
    <path d="M0 248h256v8H0v-8Zm232-8h16v8h-16v-8Zm-16 0h8v8h-8v-8Zm-24 0h8v8h-8v-8Zm-64 0h24v8h-24v-8Zm-24 0h16v8h-16v-8Zm-32 0h24v8H72v-8Zm-32 0h24v8H40v-8Zm-40 0h8v8H0v-8Zm232-8h24v8h-24v-8Zm-16 0h8v8h-8v-8Zm-16 0h8v8h-8v-8Zm-16 0h8v8h-8v-8Zm-40 0h16v8h-16v-8Zm-64 0h56v8H80v-8Zm-56 0h16v8H24v-8Zm-24 0h16v8H0v-8Zm240-8h8v8h-8v-8Zm-32 0h8v8h-8v-8Zm-16 0h8v8h-8v-8Zm-32 0h24v8h-24v-8Zm-32 0h24v8h-24v-8Zm-32 0h24v8H96v-8Zm-16 0h8v8h-8v-8Zm-64 0h16v8H16v-8Zm-16 0h8v8H0v-8Zm240-8h16v8h-16v-8Zm-48 0h16v8h-16v-8Zm-16 0h8v8h-8v-8Zm-56 0h40v8h-40v-8Zm-16 0h8v8h-8v-8Zm-32 0h8v8h-8v-8Zm-16 0h8v8h-8v-8Zm-16 0h8v8h-8v-8Zm-16 0h8v8h-8v-8Zm-24 0h8v8H0v-8Zm240-8h8v8h-8v-8Zm-40 0h8v8h-8v-8Zm-24 0h16v8h-16v-8Zm-24 0h16v8h-16v-8Zm-24 0h8v8h-8v-8Zm-56 0h32v8H72v-8Zm-32 0h8v8h-8v-8Zm-40 0h8v8H0v-8Zm248-8h8v8h-8v-8Zm-40 0h24v8h-24v-8Zm-24 0h8v8h-8v-8Zm-40 0h8v8h-8v-8Zm-24 0h16v8h-16v-8Zm-40 0h24v8H80v-8Zm-32 0h24v8H48v-8Zm-24 0h16v8H24v-8Zm-24 0h16v8H0v-8Zm192-8h56v8h-56v-8Zm-24 0h8v8h-8v-8Zm-40 0h16v8h-16v-8Zm-16 0h8v8h-8v-8Zm-40 0h16v8H72v-8Zm-48 0h40v8H24v-8Zm-24 0h8v8H0v-8Zm240-8h16v8h-16v-8Zm-24 0h16v8h-16v-8Zm-24 0h8v8h-8v-8Zm-40 0h24v8h-24v-8Zm-48 0h32v8h-32v-8Zm-40 0h16v8H64v-8Zm-48 0h8v8h-8v-8Zm-16 0h8v8H0v-8Zm200-8h16v8h-16v-8Zm-56 0h48v8h-48v-8Zm-16 0h8v8h-8v-8Zm-24 0h16v8h-16v-8Zm-16 0h8v8h-8v-8Zm-24 0h8v8h-8v-8Zm-40 0h16v8H24v-8Zm-24 0h16v8H0v-8Zm248-8h8v8h-8v-8Zm-40 0h24v8h-24v-8Zm-32 0h24v8h-24v-8Zm-32 0h8v8h-8v-8Zm-40 0h32v8h-32v-8Zm-24 0h8v8h-8v-8Zm-32 0h8v8h-8v-8Zm-16 0h8v8h-8v-8Zm-32 0h8v8H0v-8Zm216-8h24v8h-24v-8Zm-32 0h16v8h-16v-8Zm-24 0h16v8h-16v-8Zm-32 0h16v8h-16v-8Zm-16 0h8v8h-8v-8Zm-32 0h16v8H80v-8Zm-24 0h16v8H56v-8Zm-40 0h8v8h-8v-8Zm-16 0h8v8H0v-8Zm216-8h40v8h-40v-8Zm-32 0h16v8h-16v-8Zm-32 0h24v8h-24v-8Zm-32 0h16v8h-16v-8Zm-72 0h16v8H48v-8Zm-16 0h8v8h-8v-8Zm-32 0h24v8H0v-8Zm168-8h40v8h-40v-8Zm-24 0h8v8h-8v-8Zm-16 0h8v8h-8v-8Zm-16 0h8v8h-8v-8Zm-16 0h8v8h-8v-8Zm-24 0h8v8h-8v-8Zm-16 0h8v8h-8v-8Zm-16 0h8v8h-8v-8Zm-40 0h24v8H0v-8Zm248-8h8v8h-8v-8Zm-32 0h24v8h-24v-8Zm-48 0h16v8h-16v-8Zm-16 0h8v8h-8v-8Zm-40 0h24v8h-24v-8Zm-24 0h16v8H88v-8Zm-40 0h16v8H48v-8Zm-24 0h8v8h-8v-8Zm-24 0h16v8H0v-8Zm240-8h8v8h-8v-8Zm-16 0h8v8h-8v-8Zm-16 0h8v8h-8v-8Zm-16 0h8v8h-8v-8Zm-16 0h8v8h-8v-8Zm-16 0h8v8h-8v-8Zm-16 0h8v8h-8v-8Zm-16 0h8v8h-8v-8Zm-16 0h8v8h-8v-8Zm-16 0h8v8h-8v-8Zm-16 0h8v8h-8v-8Zm-16 0h8v8h-8v-8Zm-16 0h8v8h-8v-8Zm-16 0h8v8h-8v-8Zm-16 0h8v8h-8v-8Zm-16 0h8v8H0v-8Zm0-8h256v8H0v-8Zm232-8h16v8h-16v-8Zm-56 0h40v8h-40v-8Zm-16 0h8v8h-8v-8Zm-32 0h24v8h-24v-8Zm-56 0h24v8H72v-8Zm-16 0h8v8h-8v-8Zm-32 0h16v8H24v-8Zm-24 0h8v8H0v-8Zm248-8h8v8h-8v-8Zm-24 0h16v8h-16v-8Zm-48 0h8v8h-8v-8Zm-32 0h24v8h-24v-8Zm-24 0h16v8h-16v-8Zm-32 0h24v8H88v-8Zm-32 0h8v8h-8v-8Zm-56 0h48v8H0v-8Zm232-8h8v8h-8v-8Zm-16 0h8v8h-8v-8Zm-40 0h8v8h-8v-8Zm-24 0h16v8h-16v-8Zm-24 0h8v8h-8v-8Zm-16 0h8v8h-8v-8Zm-40 0h32v8H72v-8Zm-24 0h8v8h-8v-8Zm-16 0h8v8h-8v-8ZM0 96h16v8H0v-8Zm248-8h8v8h-8v-8Zm-32 0h8v8h-8v-8Zm-64 0h8v8h-8v-8Zm-32 0h24v8h-24v-8Zm-24 0h16v8H96v-8Zm-48 0h24v8H48v-8ZM0 88h16v8H0v-8Zm216-8h32v8h-32v-8Zm-24 0h16v8h-16v-8Zm-24 0h8v8h-8v-8Zm-40 0h16v8h-16v-8Zm-64 0h24v8H64v-8Zm-40 0h32v8H24v-8ZM0 80h8v8H0v-8Zm216-8h40v8h-40v-8ZM96 72h88v8H96v-8Zm-16 0h8v8h-8v-8Zm-24 0h16v8H56v-8Zm-24 0h8v8h-8v-8Zm-16 0h8v8h-8v-8ZM0 72h8v8H0v-8Zm232-8h8v8h-8v-8Zm-24 0h16v8h-16v-8Zm-40 0h24v8h-24v-8Zm-24 0h8v8h-8v-8Zm-16 0h8v8h-8v-8Zm-24 0h16v8h-16v-8Zm-40 0h24v8H64v-8Zm-40 0h24v8H24v-8ZM0 64h8v8H0v-8Zm224-8h32v8h-32v-8Zm-16 0h8v8h-8v-8Zm-48 0h40v8h-40v-8Zm-40 0h24v8h-24v-8Zm-16 0h8v8h-8v-8Zm-24 0h16v8H80v-8Zm-24 0h8v8h-8v-8Zm-16 0h8v8h-8v-8Zm-24 0h16v8H16v-8ZM0 56h8v8H0v-8Zm216-8h32v8h-32v-8Zm-64 0h40v8h-40v-8Zm-24 0h16v8h-16v-8Zm-48 0h8v8h-8v-8Zm-40 0h16v8H40v-8ZM0 48h24v8H0v-8Zm248-8h8v8h-8v-8Zm-16 0h8v8h-8v-8Zm-16 0h8v8h-8v-8Zm-24 0h8v8h-8v-8Zm-16 0h8v8h-8v-8Zm-56 0h40v8h-40v-8Zm-40 0h16v8H80v-8Zm-24 0h16v8H56v-8Zm-32 0h16v8H24v-8ZM0 40h16v8H0v-8Zm224-8h24v8h-24v-8Zm-72 0h16v8h-16v-8Zm-24 0h16v8h-16v-8Zm-24 0h16v8h-16v-8Zm-40 0h24v8H64v-8Zm-24 0h16v8H40v-8Zm-16 0h8v8h-8v-8ZM0 32h16v8H0v-8Zm232-8h24v8h-24v-8Zm-40 0h16v8h-16v-8Zm-72 0h16v8h-16v-8Zm-24 0h8v8h-8v-8Zm-16 0h8v8h-8v-8Zm-32 0h24v8H48v-8Zm-24 0h8v8h-8v-8ZM0 24h16v8H0v-8Zm240-8h8v8h-8v-8Zm-64 0h24v8h-24v-8Zm-16 0h8v8h-8v-8Zm-32 0h8v8h-8v-8Zm-24 0h16v8h-16v-8Zm-80 0h16v8H24v-8ZM0 16h8v8H0v-8Zm240-8h16v8h-16V8Zm-16 0h8v8h-8V8Zm-24 0h16v8h-16V8Zm-24 0h16v8h-16V8Zm-32 0h24v8h-24V8ZM96 8h40v8H96V8ZM80 8h8v8h-8V8ZM56 8h8v8h-8V8ZM24 8h24v8H24V8ZM0 8h8v8H0V8Zm240-8h8v8h-8V0Zm-16 0h8v8h-8V0Zm-16 0h8v8h-8V0Zm-16 0h8v8h-8V0Zm-16 0h8v8h-8V0Zm-16 0h8v8h-8V0Zm-16 0h8v8h-8V0Zm-16 0h8v8h-8V0Zm-16 0h8v8h-8V0ZM96 0h8v8h-8V0ZM80 0h8v8h-8V0ZM64 0h8v8h-8V0ZM48 0h8v8h-8V0ZM32 0h8v8h-8V0ZM16 0h8v8h-8V0ZM0 0h8v8H0V0Z" fill="black"/>
  </g>
  <defs>
    <clipPath id="a">
      <path fill="white" d="M0 0h256v256H0z"/>
    </clipPath>
  </defs>
</svg>
