<svg width="51" height="8" viewBox="0 0 51 8" fill="none" xmlns="http://www.w3.org/2000/svg">
<path d="M1.23 6.49H2.77C3.48 6.49 4.07001 6.18 4.07001 5.36C4.07001 4.54 3.48 4.23 2.77 4.23H1.23V6.49ZM1.23 3.43H2.37C3.24 3.46 3.86 3.3 3.86 2.43C3.86 1.55 3.24 1.4 2.37 1.43H1.23V3.43ZM0.309998 7.29V0.639999H2.69C3.83 0.639999 4.84 1.08 4.84 2.37C4.84 3.06 4.37001 3.62 3.71001 3.81V3.83C4.57001 3.96 5.03999 4.72 5.03999 5.55C5.03999 6.32 4.54 6.9 3.83 7.16C3.49 7.29 3.09 7.3 2.69 7.29H0.309998Z" fill="#1D1D1B"/>
<path d="M7.83 5.04C7.3 5.06 6.59 5.26 6.59 5.93C6.59 6.5 6.99 6.79 7.5 6.79C8.53 6.79 8.73001 5.9 8.71001 5.04H7.83ZM8.7 4.43C8.7 3.63 8.65 3.16 7.72 3.16C7.28 3.16 6.86001 3.42 6.85001 3.9H5.92999C5.96999 2.88 6.76999 2.53 7.67999 2.53C8.62999 2.53 9.57001 2.81 9.57001 4.1V6.31C9.57001 6.51 9.58 6.9 9.61 7.29H9.02C8.93 7.29 8.78 7.34 8.77 7.23C8.75 7.02 8.73 6.82 8.72 6.61H8.7C8.41 7.19 7.89999 7.44 7.25999 7.44C6.45999 7.44 5.64999 7.03 5.64999 6.12C5.64999 4.82 6.79999 4.44 7.89999 4.44H8.7V4.43Z" fill="#1D1D1B"/>
<path d="M11.57 3.34H11.59C11.89 2.76 12.53 2.52 12.99 2.52C13.31 2.52 14.74 2.6 14.74 4.09V7.28H13.86V4.37C13.86 3.6 13.54 3.19 12.8 3.19C12.8 3.19 12.33 3.16 11.95 3.53C11.82 3.66 11.58 3.86 11.58 4.77V7.28H10.71V2.66H11.57V3.34Z" fill="#1D1D1B"/>
<path d="M18.5 4.14C18.45 3.56 18.18 3.15 17.55 3.15C16.71 3.15 16.39 3.88 16.39 4.97C16.39 6.06 16.72 6.79 17.55 6.79C18.13 6.79 18.49 6.41 18.54 5.75H19.41C19.33 6.79 18.56 7.43 17.54 7.43C16.06 7.43 15.47 6.38 15.47 5.01C15.47 3.66 16.15 2.52 17.61 2.52C18.59 2.52 19.33 3.14 19.37 4.14H18.5Z" fill="#1D1D1B"/>
<path d="M22.12 6.79C23.16 6.79 23.5 5.96 23.5 4.97C23.5 3.98 23.16 3.16 22.12 3.16C21.08 3.16 20.74 3.99 20.74 4.97C20.74 5.96 21.08 6.79 22.12 6.79ZM24.43 4.97C24.43 6.41 23.65 7.42 22.12 7.42C20.6 7.42 19.82 6.41 19.82 4.97C19.82 3.53 20.6 2.52 22.12 2.52C23.65 2.52 24.43 3.54 24.43 4.97Z" fill="#1D1D1B"/>
<path d="M27.99 3.62C28.72 3.59 29.02 3.26 29.02 2.77C29.02 2.28 28.71 1.95 27.99 1.92H27.04V3.62H27.99ZM25.19 7.29V0.639999H28.25C29.88 0.639999 30.95 1.17 30.95 2.78C30.95 4.39 29.88 4.92 28.25 4.92H27.03V7.3H25.19V7.29Z" fill="#1D1D1B"/>
<path d="M33.76 6.41C34.5 6.41 34.65 5.63 34.65 4.97C34.65 4.32 34.5 3.53 33.76 3.53C33.02 3.53 32.87 4.31 32.87 4.97C32.87 5.63 33.03 6.41 33.76 6.41ZM36.45 4.97C36.45 6.67 35.2 7.42 33.76 7.42C32.31 7.42 31.07 6.67 31.07 4.97C31.07 3.27 32.32 2.52 33.76 2.52C35.21 2.52 36.45 3.27 36.45 4.97Z" fill="#1D1D1B"/>
<path d="M39.39 4.09C39.39 3.93 39.36 3.79 39.28 3.7C39.19 3.6 39.04 3.53 38.8 3.53C38.54 3.53 38.38 3.68 38.38 3.94C38.38 4.28 39.09 4.26 40.19 4.61C40.75 4.78 41.12 5.13 41.12 5.88C41.12 7.11 39.97 7.42 38.91 7.42C37.78 7.42 36.67 7.19 36.68 5.78H38.34C38.31 5.92 38.36 6.07 38.46 6.19C38.57 6.31 38.71 6.4 38.88 6.4C39.23 6.4 39.47 6.27 39.47 5.97C39.47 5.15 36.73 5.64 36.73 3.96C36.73 2.82 37.95 2.5 38.87 2.5C39.97 2.5 40.98 2.78 41.05 4.07H39.39V4.09Z" fill="#1D1D1B"/>
<path d="M42.33 2.66V1.96L44.08 1.3V2.66H45.1V3.77H44.08V5.6C44.08 5.72 44.01 6.32 44.42 6.32C44.65 6.32 44.89 6.32 45.09 6.29V7.33C44.69 7.4 44.41 7.42 44.15 7.42C42.96 7.42 42.24 7.25 42.33 5.84V3.76H41.43V2.65H42.33V2.66Z" fill="#1D1D1B"/>
<path d="M47.83 6.41C48.59 6.41 48.65 5.7 48.65 5.08C48.28 5.08 47.93 5.06 47.69 5.18C47.43 5.31 47.23 5.48 47.23 5.8C47.24 6.14 47.5 6.41 47.83 6.41ZM48.72 7.29C48.68 7.15 48.68 7 48.68 6.67H48.66C48.45 7 48.05 7.43 47.18 7.43C46.09 7.43 45.51 6.84 45.53 5.89C45.55 4.76 46.58 4.3 48.09 4.3H48.64C48.64 3.89 48.73 3.3 48.03 3.33C47.6 3.35 47.47 3.76 47.47 4.04H45.82C45.81 3.39 46.15 3.01 46.62 2.8C47.1 2.58 47.7 2.52 48.21 2.52C49.15 2.52 50.28 2.91 50.26 3.96V6.34C50.26 6.53 50.3 6.74 50.36 7.29H48.72Z" fill="#1D1D1B"/>
</svg>
