<svg width="78" height="32" viewBox="0 0 78 32" fill="none" xmlns="http://www.w3.org/2000/svg">
<path d="M76.06 15.58C76.08 15.36 76.14 15.18 76.4 15.17C76.51 15.16 76.6 15.21 76.66 15.29C76.72 15.37 76.75 15.48 76.75 15.58H76.06ZM77.44 15.98C77.44 15.25 77.19 14.8 76.4 14.8C75.82 14.8 75.35 15.15 75.35 15.77C75.35 16.53 75.66 16.87 76.44 16.87C76.67 16.87 76.89 16.83 77.06 16.72C77.25 16.61 77.41 16.43 77.43 16.18H76.75C76.72 16.36 76.59 16.46 76.39 16.46C76.11 16.46 76.05 16.24 76.05 15.99H77.44V15.98ZM74.95 14.01H74.21V16.81H74.95V14.01ZM73.73 16.81C73.7 16.58 73.69 16.49 73.69 16.41V15.41C73.7 14.97 73.22 14.8 72.83 14.8C72.61 14.8 72.36 14.82 72.16 14.92C71.96 15.01 71.82 15.17 71.82 15.44H72.51C72.51 15.32 72.56 15.15 72.74 15.14C73.03 15.13 73 15.38 73 15.55H72.77C72.13 15.55 71.7 15.74 71.69 16.22C71.68 16.62 71.92 16.87 72.38 16.87C72.74 16.87 72.91 16.69 73 16.55H73.01C73.01 16.69 73.01 16.75 73.03 16.81H73.73ZM72.4 16.18C72.4 16.04 72.48 15.97 72.59 15.92C72.69 15.87 72.84 15.88 72.99 15.88C72.99 16.14 72.96 16.44 72.64 16.44C72.51 16.44 72.4 16.32 72.4 16.18ZM69.89 14.86V15.32H70.27V16.19C70.23 16.79 70.53 16.86 71.03 16.86C71.14 16.86 71.26 16.85 71.43 16.82V16.38C71.34 16.39 71.24 16.39 71.15 16.39C70.98 16.39 71.01 16.14 71.01 16.09V15.32H71.44V14.86H71.01V14.29L70.27 14.57V14.86H69.89ZM69.66 15.46C69.63 14.92 69.2 14.8 68.74 14.8C68.35 14.8 67.84 14.93 67.84 15.41C67.84 16.12 68.99 15.91 68.99 16.25C68.99 16.37 68.89 16.43 68.74 16.43C68.67 16.43 68.61 16.39 68.57 16.34C68.53 16.29 68.51 16.22 68.52 16.17H67.82C67.82 16.76 68.28 16.86 68.76 16.86C69.21 16.86 69.69 16.73 69.69 16.21C69.69 15.89 69.53 15.75 69.3 15.67C68.84 15.53 68.54 15.53 68.54 15.39C68.54 15.28 68.6 15.21 68.71 15.21C68.81 15.21 68.87 15.24 68.91 15.28C68.94 15.32 68.96 15.38 68.96 15.44H69.66V15.46ZM66.39 14.8C65.78 14.8 65.26 15.11 65.26 15.83C65.26 16.55 65.78 16.86 66.39 16.86C67 16.86 67.52 16.54 67.52 15.83C67.52 15.12 67 14.8 66.39 14.8ZM66.01 15.83C66.01 15.55 66.08 15.22 66.39 15.22C66.7 15.22 66.77 15.55 66.77 15.83C66.77 16.11 66.7 16.43 66.39 16.43C66.08 16.44 66.01 16.11 66.01 15.83ZM63.82 15.23C64.13 15.23 64.18 15.59 64.18 15.84C64.18 16.09 64.13 16.44 63.82 16.44C63.51 16.44 63.46 16.08 63.46 15.84C63.46 15.58 63.51 15.23 63.82 15.23ZM63.46 14.86H62.72V17.55H63.46V16.57H63.47C63.61 16.74 63.8 16.86 64.02 16.86C64.64 16.86 64.93 16.37 64.93 15.8C64.93 15.29 64.68 14.8 64.1 14.8C63.81 14.8 63.62 14.91 63.47 15.13H63.46V14.86ZM59.93 14.8C59.32 14.8 58.8 15.11 58.8 15.83C58.8 16.55 59.32 16.86 59.93 16.86C60.54 16.86 61.06 16.54 61.06 15.83C61.06 15.12 60.54 14.8 59.93 14.8ZM59.55 15.83C59.55 15.55 59.62 15.22 59.93 15.22C60.24 15.22 60.31 15.55 60.31 15.83C60.31 16.11 60.24 16.43 59.93 16.43C59.62 16.44 59.55 16.11 59.55 15.83ZM57.03 14.86H56.28C56.3 15.07 56.3 15.18 56.3 15.36V16.81H57.04V15.69C57.04 15.67 56.99 15.27 57.36 15.27C57.59 15.27 57.64 15.48 57.64 15.67V16.81H58.38V15.51C58.38 15.08 58.07 14.81 57.65 14.81C57.4 14.81 57.21 14.89 57.04 15.08L57.03 14.86ZM55.77 14.01H55.02V14.53H55.77V14.01ZM55.77 14.86H55.03V16.81H55.77V14.86ZM53.08 14.86V15.32H53.46V16.19C53.42 16.79 53.72 16.86 54.22 16.86C54.33 16.86 54.45 16.85 54.62 16.82V16.38C54.53 16.39 54.43 16.39 54.34 16.39C54.17 16.39 54.2 16.14 54.2 16.09V15.32H54.63V14.86H54.2V14.29L53.46 14.57V14.86H53.08ZM51.36 14.86V15.32H51.74V16.19C51.7 16.79 52 16.86 52.5 16.86C52.61 16.86 52.73 16.85 52.9 16.82V16.38C52.82 16.39 52.71 16.39 52.62 16.39C52.45 16.39 52.48 16.14 52.48 16.09V15.32H52.91V14.86H52.48V14.29L51.74 14.57V14.86H51.36ZM49.78 15.58C49.8 15.36 49.86 15.18 50.12 15.17C50.23 15.16 50.32 15.21 50.38 15.29C50.44 15.37 50.47 15.48 50.47 15.58H49.78ZM51.16 15.98C51.16 15.25 50.91 14.8 50.12 14.8C49.54 14.8 49.07 15.15 49.07 15.77C49.07 16.53 49.38 16.87 50.16 16.87C50.39 16.87 50.61 16.83 50.78 16.72C50.97 16.61 51.13 16.43 51.15 16.18H50.47C50.44 16.36 50.32 16.46 50.11 16.46C49.83 16.46 49.77 16.24 49.77 15.99H51.16V15.98ZM48.66 14.01H47.92V16.81H48.66V14.01ZM47.37 14.01H46.63V16.81H47.37V14.01ZM45.07 14.8C44.46 14.8 43.94 15.11 43.94 15.83C43.94 16.55 44.46 16.86 45.07 16.86C45.68 16.86 46.2 16.54 46.2 15.83C46.2 15.12 45.67 14.8 45.07 14.8ZM44.69 15.83C44.69 15.55 44.76 15.22 45.07 15.22C45.38 15.22 45.45 15.55 45.45 15.83C45.45 16.11 45.38 16.43 45.07 16.43C44.76 16.44 44.69 16.11 44.69 15.83ZM41.41 16.81H42.13L42.15 16.52H42.17C42.22 16.72 42.49 16.87 42.71 16.87C43.35 16.87 43.62 16.4 43.62 15.81C43.62 15.26 43.35 14.81 42.76 14.81C42.54 14.81 42.3 14.9 42.17 15.07H42.16V14.01H41.42V16.81H41.41ZM42.5 15.23C42.81 15.23 42.85 15.59 42.85 15.83C42.85 16.08 42.8 16.44 42.47 16.44C42.2 16.44 42.14 16.08 42.14 15.86C42.14 15.6 42.17 15.23 42.5 15.23Z" fill="#1D1D1B"/>
<path d="M55.83 10.52C55.22 10.52 54.7 10.83 54.7 11.55C54.7 12.27 55.22 12.58 55.83 12.58C56.44 12.58 56.96 12.27 56.96 11.55C56.96 10.83 56.44 10.52 55.83 10.52ZM55.45 11.55C55.45 11.28 55.52 10.95 55.83 10.95C56.14 10.95 56.21 11.28 56.21 11.55C56.21 11.83 56.14 12.16 55.83 12.16C55.52 12.16 55.45 11.82 55.45 11.55ZM52.86 10.57V11.04H53.24V11.91C53.2 12.51 53.5 12.58 54 12.58C54.11 12.58 54.23 12.57 54.4 12.54V12.1C54.32 12.11 54.21 12.11 54.12 12.11C53.95 12.11 53.98 11.86 53.98 11.81V11.04H54.41V10.57H53.98V10L53.24 10.28V10.57H52.86ZM52.54 9.72H51.8V10.24H52.55V9.72H52.54ZM52.54 10.57H51.8V12.52H52.54V10.57ZM50.54 12.52H51.29C51.27 12.31 51.27 12.19 51.27 12.02V10.57H50.53V11.69C50.53 11.71 50.58 12.11 50.21 12.11C49.98 12.11 49.93 11.9 49.93 11.71V10.56H49.19V11.86C49.19 12.29 49.5 12.56 49.92 12.56C50.17 12.56 50.36 12.48 50.53 12.29L50.54 12.52ZM48.79 11.26C48.76 10.71 48.29 10.51 47.8 10.52C47.21 10.52 46.73 10.84 46.73 11.55C46.73 12.23 47.06 12.58 47.8 12.58C48.06 12.57 48.3 12.51 48.49 12.37C48.67 12.23 48.79 12.03 48.79 11.76H48.05C48.05 11.93 48.02 12.13 47.76 12.15C47.49 12.15 47.48 11.75 47.48 11.54C47.48 11.34 47.49 10.94 47.76 10.94C47.87 10.94 47.95 10.97 47.99 11.03C48.03 11.08 48.05 11.16 48.05 11.26H48.79ZM45.83 10.57H45.08C45.1 10.78 45.1 10.9 45.1 11.07V12.52H45.84V11.74C45.83 11.37 45.96 11.14 46.35 11.14C46.4 11.14 46.45 11.14 46.5 11.14V10.52C46.17 10.51 45.93 10.62 45.85 10.94H45.84L45.83 10.57ZM44.57 9.72H43.83V10.24H44.57V9.72ZM44.57 10.57H43.83V12.52H44.57V10.57ZM43.41 11.26C43.37 10.71 42.91 10.51 42.42 10.52C41.83 10.52 41.35 10.84 41.35 11.55C41.35 12.23 41.68 12.58 42.42 12.58C42.68 12.57 42.92 12.51 43.11 12.37C43.29 12.23 43.41 12.03 43.41 11.76H42.67C42.67 11.93 42.64 12.13 42.38 12.15C42.11 12.15 42.1 11.75 42.1 11.54C42.1 11.34 42.11 10.94 42.38 10.94C42.49 10.94 42.57 10.97 42.61 11.03C42.65 11.09 42.67 11.16 42.67 11.26H43.41Z" fill="#1D1D1B"/>
<path d="M15.67 0.410004C7.07001 0.410004 0.0700073 7.41 0.0700073 16.01C0.0700073 24.61 7.06001 31.6 15.67 31.6C24.27 31.6 31.26 24.6 31.26 16.01C31.26 7.41 24.27 0.410004 15.67 0.410004Z" fill="#1D1D1B"/>
<path d="M29.21 13.59L29.5 15.47L28.16 14.12L30.03 14.43L28.34 15.28L29.21 13.59Z" fill="white"/>
<path d="M28.92 12.44L29.51 12.01H28.79L28.56 11.32L28.34 12.01H27.61L28.2 12.44L27.97 13.13L28.56 12.7L29.15 13.13L28.92 12.44Z" fill="white"/>
<path d="M29.5 15.94L29.46 17.83L28.38 16.27L30.17 16.9L28.35 17.45L29.5 15.94Z" fill="white"/>
<path d="M29.38 18.29L29.01 20.16L28.22 18.43L29.88 19.36L27.99 19.58L29.38 18.29Z" fill="white"/>
<path d="M28.86 20.59L28.17 22.36L27.69 20.53L29.16 21.73L27.26 21.62L28.86 20.59Z" fill="white"/>
<path d="M2.43001 13.59L2.14001 15.47L3.47001 14.12L1.60001 14.43L3.30001 15.28L2.43001 13.59Z" fill="white"/>
<path d="M2.13002 15.94L2.17002 17.83L3.26002 16.27L1.46002 16.9L3.28002 17.45L2.13002 15.94Z" fill="white"/>
<path d="M3.07 11.32L2.49 13.13L4.02 12.01H2.12L3.66 13.13L3.07 11.32Z" fill="white"/>
<path d="M2.25001 18.29L2.62001 20.16L3.42001 18.43L1.76001 19.36L3.64001 19.58L2.25001 18.29Z" fill="white"/>
<path d="M2.77001 20.59L3.46001 22.36L3.95001 20.53L2.48001 21.73L4.37001 21.62L2.77001 20.59Z" fill="white"/>
<path d="M25.88 9.19L27.64 8.11L28.35 9.27L28.04 9.46L27.54 8.64L27.13 8.89L27.56 9.58L27.25 9.77L26.82 9.08L26.39 9.34L26.89 10.15L26.58 10.34L25.88 9.19ZM24.9 7.95L26.5 6.65L26.75 6.96L25.43 8.03L26.02 8.76L25.74 8.99L24.9 7.95ZM25.15 6.14L24.44 6.51L24.82 6.86L25.15 6.14ZM24.5 7.53L24.66 7.18L24.12 6.68L23.78 6.86L23.47 6.57L25.43 5.58L25.66 5.8L24.8 7.82L24.5 7.53ZM24.16 4.98L23.16 6.36L22.83 6.12L23.83 4.74L23.39 4.42L23.6 4.13L24.8 5L24.59 5.29L24.16 4.98ZM21.6 5.38C21.32 5.23 21.15 5.06 21.07 4.78L21.42 4.68C21.47 4.86 21.61 4.98 21.77 5.07C21.98 5.18 22.13 5.17 22.21 5.02C22.24 4.96 22.26 4.89 22.24 4.84C22.22 4.79 22.19 4.75 22.12 4.69L21.92 4.54C21.78 4.43 21.69 4.32 21.65 4.2C21.61 4.07 21.63 3.93 21.71 3.77C21.89 3.45 22.25 3.35 22.64 3.56C22.89 3.7 23.04 3.86 23.11 4.09L22.76 4.19C22.71 4.02 22.58 3.93 22.46 3.86C22.27 3.76 22.12 3.81 22.06 3.94C22.04 3.99 22.02 4.04 22.04 4.1C22.06 4.15 22.1 4.21 22.17 4.26L22.37 4.41C22.52 4.52 22.6 4.63 22.64 4.74C22.69 4.88 22.66 5.04 22.57 5.2C22.38 5.55 21.98 5.59 21.6 5.38ZM20.91 3.26C20.88 3.18 20.81 3.11 20.71 3.07C20.61 3.03 20.5 3.04 20.43 3.08C20.33 3.13 20.27 3.22 20.13 3.59C19.99 3.96 19.98 4.06 20.02 4.17C20.05 4.25 20.12 4.33 20.23 4.37C20.33 4.41 20.43 4.4 20.51 4.36C20.61 4.31 20.67 4.22 20.81 3.85C20.94 3.47 20.96 3.37 20.91 3.26ZM20.7 4.68C20.51 4.76 20.32 4.78 20.1 4.7C19.88 4.62 19.74 4.48 19.66 4.29C19.54 4.02 19.63 3.78 19.76 3.45C19.88 3.12 19.97 2.87 20.24 2.75C20.43 2.66 20.62 2.65 20.84 2.74C21.06 2.82 21.2 2.96 21.28 3.15C21.4 3.42 21.31 3.66 21.18 3.99C21.06 4.32 20.97 4.56 20.7 4.68ZM18.9 2.54L18.53 2.46L18.41 3.01L18.78 3.09C18.96 3.13 19.1 3.04 19.13 2.88C19.17 2.72 19.08 2.58 18.9 2.54ZM18.72 3.45L18.33 3.36L18.16 4.12L17.76 4.03L18.21 2.01L19 2.2C19.42 2.29 19.6 2.63 19.53 2.98C19.45 3.31 19.14 3.54 18.72 3.45ZM16.08 3.72C16.48 3.73 16.72 3.37 16.73 2.92C16.74 2.53 16.55 2.12 16.13 2.11C15.71 2.1 15.49 2.49 15.48 2.91C15.46 3.32 15.68 3.71 16.08 3.72ZM16.06 3.93C15.54 3.92 15.19 3.51 15.21 2.92C15.22 2.3 15.62 1.9 16.14 1.92C16.68 1.93 17.01 2.35 17 2.93C16.97 3.59 16.56 3.94 16.06 3.93ZM13.5 4.08L13.25 2.14L13.53 2.1L14.27 3C14.44 3.21 14.58 3.4 14.7 3.59H14.71C14.65 3.33 14.62 3.1 14.58 2.8L14.48 1.99L14.72 1.96L14.97 3.9L14.72 3.93L13.98 3.03C13.82 2.83 13.66 2.63 13.54 2.43H13.53C13.58 2.67 13.61 2.91 13.65 3.23L13.76 4.06L13.5 4.08ZM12.7 2.27L13.14 4.17L12.89 4.23L12.45 2.33L12.7 2.27ZM11.4 2.86L10.83 3.04L10.76 2.84L12.14 2.4L12.21 2.61L11.64 2.79L12.17 4.45L11.93 4.53L11.4 2.86ZM9.85 3.47L9.31001 3.72L9.22001 3.52L10.54 2.92L10.63 3.11L10.09 3.36L10.81 4.94L10.58 5.05L9.85 3.47ZM9.42 4.61L8.77 5L9.13 5.6L9.85 5.16L9.96 5.34L9.02 5.91L8.01 4.24L8.92 3.7L9.03 3.88L8.34 4.3L8.66 4.83L9.31001 4.44L9.42 4.61ZM6.81001 5.12L7.01 4.97L8.07 6.36L8.74001 5.85L8.87 6.02L8 6.68L6.81001 5.12ZM5.7 6.13L5.89 5.95L7.09 7.22L7.7 6.65L7.85 6.8L7.06001 7.55L5.7 6.13ZM6.15001 8.29C6.40001 7.98 6.26 7.57 5.92 7.29C5.62 7.04 5.18 6.95 4.91 7.27C4.64 7.59 4.81 8 5.14 8.27C5.46 8.53 5.90001 8.6 6.15001 8.29ZM6.3 8.43C5.97 8.83 5.43001 8.86 4.97001 8.48C4.49001 8.09 4.42 7.53 4.75 7.13C5.09 6.71 5.62 6.7 6.07 7.07C6.6 7.5 6.62 8.04 6.3 8.43ZM4.99001 9.95C5.02001 9.91 5.06 9.85 5.11 9.77C5.25 9.55 5.29 9.29 5.05 9.14C4.82 9 4.61001 9.14 4.47001 9.38L4.36 9.56L4.99001 9.95ZM4.19 9.46L4.31001 9.27C4.45001 9.04 4.41 8.84 4.25 8.74C4.06 8.62 3.89 8.72 3.76 8.94C3.7 9.04 3.67 9.1 3.66 9.14L4.19 9.46ZM3.38 9.26C3.41 9.15 3.49001 8.99 3.58001 8.84C3.71001 8.62 3.83 8.51 3.98 8.46C4.1 8.41 4.23 8.42 4.36 8.5C4.52 8.6 4.60001 8.79 4.56001 9.01H4.57C4.7 8.87 4.95 8.77 5.2 8.92C5.34 9.01 5.42 9.13 5.45 9.27C5.49 9.45 5.42 9.67 5.26 9.94C5.17 10.09 5.09 10.2 5.04 10.26L3.38 9.26Z" fill="white"/>
<path d="M5.76 23.84L5.49001 23.5L4.98 23.9L5.25 24.24C5.38 24.4 5.57001 24.43 5.72001 24.31C5.87001 24.19 5.89 24.01 5.76 23.84ZM4.93 24.52L4.65001 24.16L3.95 24.72L3.66 24.35L5.53 22.87L6.1 23.6C6.41 23.99 6.32 24.43 6.01 24.68C5.69 24.93 5.24 24.91 4.93 24.52Z" fill="white"/>
<path d="M7.22002 25.52C7.22002 25.42 7.18002 25.31 7.09002 25.23C7.00002 25.14 6.88001 25.11 6.78001 25.12C6.65001 25.13 6.55002 25.2 6.24002 25.54C5.93002 25.88 5.87001 25.97 5.87001 26.11C5.87001 26.21 5.91001 26.32 6.01001 26.41C6.10001 26.5 6.21002 26.53 6.32002 26.52C6.45002 26.51 6.55002 26.44 6.86002 26.11C7.16002 25.75 7.22002 25.65 7.22002 25.52ZM6.38002 26.94C6.14002 26.95 5.93002 26.88 5.73002 26.7C5.53002 26.52 5.44002 26.31 5.43002 26.07C5.42002 25.73 5.62002 25.51 5.90002 25.21C6.18002 24.91 6.37001 24.68 6.71001 24.67C6.95001 24.66 7.16002 24.73 7.36002 24.91C7.56002 25.09 7.65002 25.3 7.66002 25.54C7.67002 25.88 7.47001 26.1 7.19001 26.4C6.92001 26.71 6.72002 26.93 6.38002 26.94Z" fill="white"/>
<path d="M7.49001 28.08C7.19001 27.88 7 27.67 6.94 27.34L7.36 27.25C7.4 27.46 7.54 27.61 7.73 27.74C7.96 27.89 8.14001 27.89 8.24001 27.73C8.29001 27.66 8.31 27.59 8.29 27.52C8.28 27.46 8.24 27.41 8.16 27.33L7.94 27.14C7.79 27 7.7 26.87 7.66 26.72C7.63 26.56 7.66 26.4 7.78 26.23C8.02 25.88 8.44 25.8 8.87 26.09C9.14 26.27 9.3 26.47 9.36 26.75L8.95 26.83C8.91 26.63 8.77 26.51 8.63 26.42C8.42 26.28 8.25 26.33 8.16 26.47C8.13 26.52 8.11 26.58 8.12 26.65C8.14 26.71 8.18 26.79 8.25 26.85L8.46 27.04C8.62 27.19 8.71001 27.31 8.74001 27.44C8.78001 27.61 8.73 27.79 8.61 27.96C8.37 28.35 7.90001 28.36 7.49001 28.08Z" fill="white"/>
<path d="M10.46 27.47L9.63001 29.25L9.21001 29.05L10.04 27.27L9.48001 27L9.66001 26.63L11.2 27.35L11.03 27.73L10.46 27.47Z" fill="white"/>
<path d="M10.76 29.71L11.44 27.43L12.94 27.88L12.82 28.28L11.76 27.96L11.6 28.5L12.5 28.77L12.39 29.16L11.48 28.89L11.32 29.45L12.38 29.76L12.26 30.16L10.76 29.71Z" fill="white"/>
<path d="M14.7061 28.1168L14.5623 30.4926L15.0315 30.5209L15.1752 28.1452L14.7061 28.1168Z" fill="white"/>
<path d="M16.56 28.55L16.66 30.51L16.19 30.54L16.09 28.57L15.47 28.6L15.45 28.19L17.16 28.1L17.18 28.52L16.56 28.55Z" fill="white"/>
<path d="M18.12 28.63L17.99 29.54L18.57 29.43L18.12 28.63ZM18.98 30.18L18.76 29.79L17.93 29.95L17.87 30.39L17.39 30.48L17.8 27.98L18.16 27.91L19.46 30.09L18.98 30.18Z" fill="white"/>
<path d="M19.96 29.92L19.16 27.68L19.59 27.52L20.25 29.37L21.27 29.01L21.41 29.4L19.96 29.92Z" fill="white"/>
<path d="M21.2551 26.822L20.8414 27.0231L21.8817 29.1637L22.2954 28.9626L21.2551 26.822Z" fill="white"/>
<path d="M22.72 26.79L22.93 27.68L23.43 27.36L22.72 26.79ZM24.09 27.9L23.74 27.62L23.03 28.08L23.14 28.51L22.73 28.77L22.17 26.3L22.48 26.1L24.5 27.64L24.09 27.9Z" fill="white"/>
<path d="M25.97 26.35L24.29 25.91L25.27 26.99L24.93 27.3L23.32 25.54L23.63 25.26L25.31 25.71L24.33 24.63L24.67 24.31L26.28 26.07L25.97 26.35Z" fill="white"/>
<path d="M26.81 25.48L24.93 24.01L25.9 22.78L26.23 23.03L25.55 23.9L25.99 24.25L26.57 23.51L26.89 23.76L26.31 24.5L26.77 24.86L27.45 23.99L27.77 24.25L26.81 25.48Z" fill="white"/>
<path d="M26.32 15.93C26.32 21.81 21.55 26.58 15.67 26.58C9.79002 26.58 5.02002 21.81 5.02002 15.93C5.02002 10.05 9.79002 5.28 15.67 5.28C21.55 5.28 26.32 10.05 26.32 15.93Z" fill="white"/>
<path d="M13.34 6.95001C16.39 7.30001 18.22 7.52001 18.82 7.63001C19.37 7.74001 19.8 7.86002 20.12 7.98002C20.38 8.09002 20.64 8.24002 20.91 8.41002C21.28 8.72002 21.53 8.97001 21.65 9.17001C22.17 9.92001 22.43 10.74 22.43 11.63V11.71C22.43 12.92 22.04 13.8 21.25 14.34C21.23 14.35 21.12 14.42 20.91 14.55V14.56C21.61 14.92 22.13 15.56 22.47 16.46C22.62 16.93 22.7 17.36 22.7 17.75V18.24C22.7 19.54 22.51 20.53 21.55 21.22C19.21 22.96 18.31 23.46 18.21 23.51C17.32 23.89 16.65 23.95 15.99 23.95H15.96C15.48 23.95 14.34 23.84 12.55 23.62L9.94 23.31V23.3C9.94 20.02 9.95 15.32 9.96 9.19002C12.09 7.77002 13.22 7.03001 13.34 6.95001ZM18.51 21.56C18.65 21.28 18.7 21.23 18.84 20.81C18.91 20.52 18.99 20.23 19.01 19.88C19.03 19.3 18.95 18.78 18.78 18.3C18.61 17.82 18.36 17.4 18.04 17.04C17.93 16.93 17.83 16.83 17.74 16.75C17.65 16.67 17.56 16.6 17.47 16.54C17.38 16.48 17.32 16.44 17.28 16.42C17.24 16.4 17.22 16.39 17.22 16.39C17.22 16.39 17.24 16.37 17.3 16.33C17.36 16.29 17.46 16.23 17.61 16.13C17.75 16.02 17.82 15.96 17.87 15.91C17.92 15.86 17.95 15.82 18.01 15.76C18.16 15.58 18.27 15.43 18.36 15.25C18.45 15.07 18.53 14.86 18.61 14.57C18.65 14.39 18.68 14.22 18.7 14.04C18.72 13.86 18.73 13.68 18.73 13.49V13.45V13.41C18.71 12.92 18.65 12.51 18.52 12.13C18.39 11.75 18.2 11.38 17.94 10.98C17.81 10.81 17.64 10.62 17.48 10.47C17.32 10.32 17.17 10.2 17.09 10.16C17.02 10.11 16.96 10.07 16.87 10.01C16.78 9.96002 16.65 9.89001 16.44 9.81001C16.32 9.76001 16.14 9.73001 15.92 9.70001C15.7 9.67001 15.44 9.64001 15.13 9.59001L12.84 9.41002L10.55 9.31001C10.55 10.58 10.55 12.28 10.54 14.54C10.54 16.8 10.53 19.55 10.53 22.77C12.19 22.99 13.48 23.13 14.41 23.22C15.34 23.31 15.76 23.28 16.07 23.26C16.85 23.14 17.21 22.9 17.6 22.62C18.14 22.17 18.32 21.86 18.51 21.56ZM12.8 16.98C13.94 17.1 14.74 17.23 15.18 17.36C15.37 17.42 15.53 17.51 15.67 17.61C16.15 18.01 16.4 18.63 16.4 19.46C16.4 20.37 16.1 20.96 15.51 21.23C15.29 21.33 15.05 21.38 14.76 21.38H14.71C14.52 21.38 13.87 21.31 12.76 21.16C12.77 20.15 12.77 19.38 12.77 18.88V17C12.78 16.99 12.79 16.98 12.8 16.98ZM12.79 11.38C14.06 11.49 14.79 11.6 14.99 11.68C15.43 11.83 15.75 12.09 15.93 12.45C16.1 12.77 16.18 13.15 16.18 13.59C16.18 14.42 15.97 14.94 15.56 15.14C15.33 15.27 15.01 15.33 14.59 15.33C14.22 15.33 13.62 15.27 12.78 15.16V11.38H12.79Z" fill="#1D1D1B"/>
<path d="M36.35 7.98001V24.2" stroke="#1D1D1B" stroke-width="1.244" stroke-miterlimit="10"/>
<path d="M41.65 20.83H42.31C42.61 20.83 42.86 20.7 42.86 20.34C42.86 19.99 42.61 19.86 42.31 19.86H41.65V20.83ZM41.65 19.52H42.14C42.51 19.53 42.78 19.47 42.78 19.09C42.78 18.72 42.52 18.65 42.14 18.66H41.65V19.52ZM41.25 21.17V18.33H42.27C42.76 18.33 43.19 18.52 43.19 19.07C43.19 19.36 42.99 19.61 42.71 19.68V19.69C43.07 19.74 43.28 20.07 43.28 20.43C43.28 20.76 43.06 21.01 42.76 21.12C42.61 21.17 42.44 21.18 42.27 21.17H41.25Z" fill="#1D1D1B"/>
<path d="M44.46 20.21C44.23 20.22 43.93 20.3 43.93 20.59C43.93 20.83 44.1 20.96 44.32 20.96C44.76 20.96 44.85 20.58 44.84 20.21H44.46ZM44.84 19.95C44.84 19.61 44.82 19.41 44.42 19.41C44.23 19.41 44.05 19.52 44.05 19.73H43.66C43.68 19.3 44.02 19.14 44.41 19.14C44.82 19.14 45.22 19.26 45.22 19.81V20.75C45.22 20.84 45.22 21 45.24 21.17H44.99C44.95 21.17 44.89 21.19 44.88 21.14C44.87 21.05 44.87 20.96 44.86 20.87H44.85C44.73 21.12 44.51 21.22 44.24 21.22C43.9 21.22 43.55 21.04 43.55 20.66C43.55 20.11 44.04 19.94 44.51 19.94H44.84V19.95Z" fill="#1D1D1B"/>
<path d="M46.06 19.48C46.19 19.23 46.47 19.13 46.66 19.13C46.8 19.13 47.41 19.17 47.41 19.8V21.17H47.04V19.93C47.04 19.6 46.9 19.43 46.59 19.43C46.59 19.43 46.39 19.42 46.23 19.57C46.17 19.63 46.07 19.71 46.07 20.1V21.17H45.7V19.19H46.07V19.48H46.06Z" fill="#1D1D1B"/>
<path d="M49.02 19.83C49 19.58 48.88 19.41 48.61 19.41C48.25 19.41 48.11 19.72 48.11 20.18C48.11 20.64 48.25 20.96 48.61 20.96C48.86 20.96 49.01 20.8 49.03 20.52H49.4C49.37 20.96 49.04 21.23 48.6 21.23C47.97 21.23 47.72 20.78 47.72 20.2C47.72 19.62 48.01 19.14 48.64 19.14C49.06 19.14 49.37 19.4 49.39 19.83H49.02Z" fill="#1D1D1B"/>
<path d="M50.57 20.95C51.01 20.95 51.16 20.6 51.16 20.17C51.16 19.75 51.02 19.4 50.57 19.4C50.13 19.4 49.98 19.75 49.98 20.17C49.98 20.6 50.12 20.95 50.57 20.95ZM51.55 20.18C51.55 20.79 51.22 21.23 50.56 21.23C49.91 21.23 49.58 20.8 49.58 20.18C49.58 19.57 49.91 19.13 50.56 19.13C51.22 19.13 51.55 19.57 51.55 20.18Z" fill="#1D1D1B"/>
<path d="M53.07 19.6C53.38 19.59 53.51 19.45 53.51 19.24C53.51 19.03 53.38 18.89 53.07 18.88H52.66V19.6H53.07ZM51.88 21.17V18.33H53.19C53.89 18.33 54.34 18.55 54.34 19.24C54.34 19.93 53.88 20.15 53.19 20.15H52.67V21.16H51.88V21.17Z" fill="#1D1D1B"/>
<path d="M55.54 20.79C55.86 20.79 55.92 20.46 55.92 20.18C55.92 19.9 55.86 19.57 55.54 19.57C55.22 19.57 55.16 19.9 55.16 20.18C55.16 20.46 55.22 20.79 55.54 20.79ZM56.69 20.18C56.69 20.91 56.16 21.23 55.54 21.23C54.92 21.23 54.39 20.91 54.39 20.18C54.39 19.45 54.92 19.13 55.54 19.13C56.15 19.13 56.69 19.45 56.69 20.18Z" fill="#1D1D1B"/>
<path d="M57.94 19.8C57.94 19.73 57.93 19.67 57.89 19.64C57.85 19.6 57.79 19.57 57.68 19.57C57.57 19.57 57.5 19.63 57.5 19.75C57.5 19.9 57.8 19.89 58.27 20.04C58.51 20.11 58.67 20.26 58.67 20.58C58.67 21.1 58.18 21.24 57.73 21.24C57.25 21.24 56.77 21.14 56.78 20.54H57.49C57.48 20.6 57.5 20.66 57.54 20.72C57.58 20.77 57.65 20.81 57.72 20.81C57.87 20.81 57.97 20.76 57.97 20.63C57.97 20.28 56.8 20.49 56.8 19.77C56.8 19.28 57.32 19.15 57.71 19.15C58.18 19.15 58.61 19.27 58.64 19.82H57.94V19.8Z" fill="#1D1D1B"/>
<path d="M59.2 19.19V18.89L59.95 18.61V19.19H60.38V19.66H59.95V20.44C59.95 20.49 59.92 20.75 60.09 20.75C60.19 20.75 60.29 20.75 60.38 20.74V21.18C60.21 21.21 60.09 21.22 59.98 21.22C59.47 21.22 59.17 21.15 59.2 20.54V19.66H58.81V19.19H59.2Z" fill="#1D1D1B"/>
<path d="M61.55 20.79C61.87 20.79 61.9 20.49 61.9 20.22C61.74 20.22 61.59 20.21 61.49 20.26C61.38 20.31 61.29 20.38 61.29 20.52C61.29 20.68 61.4 20.79 61.55 20.79ZM61.93 21.17C61.91 21.11 61.91 21.05 61.91 20.9H61.9C61.81 21.04 61.64 21.23 61.27 21.23C60.8 21.23 60.56 20.98 60.57 20.57C60.58 20.09 61.02 19.89 61.66 19.89H61.9C61.9 19.72 61.94 19.46 61.64 19.48C61.46 19.49 61.4 19.66 61.4 19.78H60.7C60.7 19.5 60.84 19.34 61.04 19.25C61.24 19.16 61.5 19.13 61.72 19.13C62.12 19.13 62.6 19.3 62.6 19.74V20.76C62.6 20.84 62.62 20.93 62.64 21.16H61.93V21.17Z" fill="#1D1D1B"/>
</svg>
