<svg width="113" height="16" viewBox="0 0 113 16" fill="none" xmlns="http://www.w3.org/2000/svg">
<path d="M110.86 9C110.9 7.34 110.15 6.06 108.34 6.06C106.78 6.06 105.86 7.38 105.86 9H110.86ZM105.85 10.3C105.71 12.03 106.42 13.83 108.33 13.83C109.79 13.83 110.52 13.26 110.74 11.82H112.71C112.41 14.07 110.68 15.19 108.31 15.19C105.14 15.19 103.88 12.94 103.88 10.03C103.88 7.13 105.34 4.71 108.47 4.71C111.43 4.77 112.83 6.64 112.83 9.38V10.31H105.85V10.3ZM95.62 6.45H95.66C96.29 5.21 97.67 4.7 98.65 4.7C99.34 4.7 102.4 4.88 102.4 8.05V14.89H100.53V8.66C100.53 7.02 99.84 6.14 98.26 6.14C98.26 6.14 97.24 6.08 96.45 6.87C96.18 7.15 95.66 7.58 95.66 9.51V14.89H93.79V5H95.62V6.45ZM88.1 10.08C86.96 10.14 85.44 10.55 85.44 11.99C85.44 13.21 86.29 13.82 87.39 13.82C89.6 13.82 90.01 11.91 89.97 10.08H88.1ZM89.98 8.78C89.98 7.07 89.88 6.06 87.89 6.06C86.94 6.06 86.06 6.61 86.04 7.64H84.07C84.17 5.47 85.86 4.7 87.81 4.7C89.84 4.7 91.85 5.31 91.85 8.07V12.8C91.85 13.23 91.87 14.06 91.93 14.89H90.67C90.49 14.89 90.16 14.99 90.14 14.75C90.1 14.3 90.06 13.86 90.04 13.41H90C89.39 14.65 88.28 15.18 86.92 15.18C85.21 15.18 83.47 14.29 83.47 12.36C83.47 9.58 85.93 8.77 88.28 8.77H89.98V8.78ZM79.73 0.660004H81.96V2.69H79.73V0.660004ZM79.91 5H81.78V14.9H79.91V5ZM75.71 0.660004H77.58V14.89H75.71V0.660004ZM70.1 10.08C68.96 10.14 67.44 10.55 67.44 11.99C67.44 13.21 68.29 13.82 69.39 13.82C71.6 13.82 72.01 11.91 71.97 10.08H70.1ZM71.97 8.78C71.97 7.07 71.87 6.06 69.88 6.06C68.93 6.06 68.04 6.61 68.03 7.64H66.06C66.16 5.47 67.85 4.7 69.81 4.7C71.84 4.7 73.85 5.31 73.85 8.07V12.8C73.85 13.23 73.87 14.06 73.93 14.89H72.67C72.49 14.89 72.16 14.99 72.14 14.75C72.1 14.3 72.06 13.86 72.04 13.41H72C71.39 14.65 70.28 15.18 68.93 15.18C67.21 15.18 65.48 14.29 65.48 12.36C65.48 9.58 67.94 8.77 70.29 8.77H71.97V8.78ZM60.46 5V2.89L62.33 2.3V5L64.62 4.94V6.34L62.33 6.32V12.71C62.33 13.42 62.88 13.76 63.55 13.76C63.85 13.76 64.24 13.72 64.54 13.64V15.08C64.11 15.1 63.69 15.2 63.26 15.2C62.81 15.2 62.45 15.18 62 15.1C61.7 15.04 61.21 14.88 60.9 14.45C60.57 13.97 60.47 13.94 60.47 12.61V6.32L58.78 6.34V4.94L60.46 5ZM55.41 0.660004H57.64V2.69H55.41V0.660004ZM55.59 5H57.46V14.9H55.59V5ZM36.62 5.09V3.6L40.35 2.19V5.1H42.51V7.46H40.35V11.37C40.35 11.62 40.19 12.9 41.06 12.9C41.55 12.9 42.06 12.9 42.5 12.84V15.06C41.65 15.22 41.04 15.26 40.49 15.26C37.96 15.26 36.42 14.91 36.62 11.88V7.46H34.7V5.1H36.62V5.09ZM30.47 8.14C30.47 7.81 30.41 7.51 30.23 7.32C30.03 7.11 29.72 6.97 29.21 6.97C28.66 6.97 28.33 7.28 28.33 7.85C28.33 8.58 29.84 8.54 32.18 9.27C33.36 9.64 34.16 10.37 34.16 11.98C34.16 14.59 31.7 15.26 29.44 15.26C27.02 15.26 24.66 14.77 24.68 11.76H28.22C28.16 12.05 28.26 12.39 28.48 12.64C28.7 12.9 29.01 13.09 29.36 13.09C30.09 13.09 30.62 12.82 30.62 12.19C30.62 10.44 24.78 11.48 24.78 7.91C24.78 5.47 27.37 4.81 29.34 4.81C31.68 4.81 33.84 5.42 34 8.15H30.47V8.14ZM18.23 13.09C19.8 13.09 20.14 11.42 20.14 10.02C20.14 8.62 19.81 6.95 18.23 6.95C16.66 6.95 16.32 8.62 16.32 10.02C16.32 11.42 16.65 13.09 18.23 13.09ZM23.96 10.03C23.96 13.67 21.31 15.26 18.22 15.26C15.13 15.26 12.48 13.67 12.48 10.03C12.48 6.39 15.13 4.8 18.22 4.8C21.31 4.8 23.96 6.39 23.96 10.03ZM6.03001 7.14C7.58001 7.08 8.23001 6.37 8.23001 5.33C8.23001 4.29 7.58001 3.58 6.03001 3.52H4.00001V7.13H6.03001V7.14ZM0.0700073 14.96V0.769997H6.60001C10.08 0.769997 12.36 1.89 12.36 5.33C12.36 8.77 10.08 9.89 6.60001 9.89H4.00001V14.96H0.0700073ZM50.44 8.77C50.44 8.24 50.28 7.71 49.99 7.3C49.7 6.89 49.26 6.63 48.69 6.67C47.39 6.73 47.08 7.65 46.98 8.77H50.44ZM46.9 10.77C46.88 12.05 47.21 13.15 48.61 13.15C49.65 13.15 50.3 12.66 50.44 11.74H53.9C53.78 13.02 52.98 13.94 52.03 14.49C51.16 15.04 50.06 15.26 48.91 15.26C44.96 15.26 43.39 13.57 43.39 9.7C43.39 6.57 45.73 4.81 48.7 4.81C52.71 4.81 53.99 7.11 53.99 10.78H46.9V10.77Z" fill="#1D1D1B"/>
</svg>
